<ttFont>
          <CharString index="0">
            346 -12 rmoveto
            180 122 126 214 -36 callgsubr
            -180 -122 -120 -214 -214 122 -126 180 hvcurveto
            148 vmoveto
            -78 -48 74 118 118 48 68 78 78 48 -68 -118 -118 -48 -74 -78 hvcurveto
            return
          </CharString>
          <CharString index="1">
            -97 callsubr
            285 hlineto
            3 12 4 26 30 vvcurveto
            134 -70 108 -148 -122 -118 -100 -162 vhcurveto
            164 56 rmoveto
            55 10 32 21 38 hhcurveto
            52 16 -34 -42 hvcurveto
            return
          </CharString>
          <CharString index="2">
            rmoveto
            11 45 16 62 16 78 14 66 rlinecurve
            4 hlineto
            16 -65 16 -79 16 -62 11 -45 rcurveline
            63 -271 rmoveto
            182 hlineto
            -198 650 rlineto
            -208 hlineto
            -198 -650 rlineto
            176 hlineto
            32 138 70 callsubr
            endchar
          </CharString>
          <CharString index="3">
            12 -48 rlineto
            140 278 hlineto
            164 -78 70 -130 -78 -72 -24 -42 -70 vhcurveto
            60 -112 rlineto
            28 52 38 14 36 hhcurveto
            44 22 -16 -36 4 hvcurveto
            -192 -20 -80 -58 -104 vvcurveto
            return
          </CharString>
          <CharString index="4">
            -98 callgsubr
            -46 -32 -34 -44 -44 32 -34 46 hvcurveto
            endchar
          </CharString>
          <CharString index="5">
            68 314 rmoveto
            -222 88 -104 182 182 84 104 222 vhcurveto
            336 -166 -356 vlineto
            -116 -32 -42 -68 -68 -30 42 116 vhcurveto
            356 -172 vlineto
            return
          </CharString>
          <CharString index="6">
            rmoveto
            48 58 108 callsubr
            -58 52 callgsubr
            -96 124 rlineto
            -168 hlineto
            -96 -124 rlineto
            return
          </CharString>
          <CharString index="7">
            rmoveto
            -48 -58 rlineto
            -4 hlineto
            -48 58 59 callgsubr
            96 -124 rlineto
            168 hlineto
            96 124 rlineto
            endchar
          </CharString>
          <CharString index="8">
            -32 -8 -14 -10 -16 -28 -38 42 -54 hhcurveto
            -54 -50 -43 callsubr
            14 10 16 28 38 -42 54 hhcurveto
            return
          </CharString>
          <CharString index="9">
            -6 22 20 -4 34 hhcurveto
            124 54 61 135 52 hvcurveto
            168 492 rlineto
            -164 hlineto
            -50 -192 -12 -48 -10 -46 -10 -48 rlinecurve
            -4 hlineto
            -12 50 -10 46 -14 46 -60 192 167 callgsubr
            190 -482 -6 -22 rlineto
            -30 -10 -22 -20 -46 hhcurveto
            -10 -13 4 2 -9 hvcurveto
            return
          </CharString>
          <CharString index="10">
            32 250 rmoveto
            -166 112 -96 146 56 72 20 38 54 vhcurveto
            -56 102 rlineto
            -20 -36 -32 -10 -34 hhcurveto
            -56 -44 20 64 -16 hvcurveto
            return
          </CharString>
          <CharString index="11">
            44 320 rmoveto
            -222 146 -110 178 92 84 36 44 48 vhcurveto
            310 -248 -140 96 -90 vlineto
            -8 -12 -20 -4 -18 hhcurveto
            -116 -54 68 122 118 66 70 88 52 28 -16 -28 32 hvcurveto
            94 106 rlineto
            46 -46 -70 40 -92 hhcurveto
            -178 65 callsubr
            return
          </CharString>
          <CharString index="12">
            44 261 rmoveto
            -187 132 -86 157 79 77 28 39 43 vhcurveto
            261 -224 -118 74 -66 vlineto
            -6 -10 -12 -2 -14 hhcurveto
            -90 -38 52 85 94 52 50 67 39 24 -11 -24 28 hvcurveto
            92 100 rlineto
            40 -42 -63 34 -80 hhcurveto
            -155 90 callgsubr
            return
          </CharString>
          <CharString index="13">
            rmoveto
            120 hlineto
            48 52 108 callsubr
            -52 53 callgsubr
            -96 118 rlineto
            -148 hlineto
            return
          </CharString>
          <CharString index="14">
            72 hmoveto
            430 144 -258 116 212 144 -212 102 248 144 -420 hlineto
            return
          </CharString>
          <CharString index="15">
            26 callsubr
            hintmask 00111110
            54 192 rmoveto
            hintmask 01011110
            -80 callsubr
            hintmask 00111110
            159 callsubr
            79 callgsubr
            hintmask 10011110
            -81 callgsubr
            return
          </CharString>
          <CharString index="16">
            170 -54 rmoveto
            14 6 10 12 12 vhcurveto
            -4 14 18 -2 40 hhcurveto
            39 hlineto
            43 24 -4 -26 -28 -42 -18 -56 -58 -40 14 32 hvcurveto
            -140 -28 rmoveto
            -90 96 -34 114 178 112 74 108 92 -72 38 -125 vhcurveto
            return
          </CharString>
          <CharString index="17">
            vstem
            124 hmoveto
            214 hlineto
            48 258 10 50 7 54 7 48 rlinecurve
            4 hlineto
            6 -48 8 -54 10 -50 50 -258 rcurveline
            218 hlineto
            108 650 rlineto
            -164 hlineto
            -36 -284 -7 -66 -8 -69 -7 -69 rlinecurve
            -4 hlineto
            -12 69 -12 70 -12 65 -62 284 rcurveline
            -144 hlineto
            -62 -284 -12 -67 -12 -69 -12 -68 rlinecurve
            -4 hlineto
            -7 68 -8 68 -7 68 -36 284 rcurveline
            -176 hlineto
            return
          </CharString>
          <CharString index="18">
            rmoveto
            56 40 36 50 50 -40 36 -56 -56 -40 -36 -50 -50 40 -36 56 hvcurveto
            return
          </CharString>
          <CharString index="19">
            vstem
            106 hmoveto
            204 hlineto
            34 177 9 41 5 46 6 38 rlinecurve
            4 hlineto
            4 -38 6 -46 8 -41 36 -177 rcurveline
            208 hlineto
            90 531 rlineto
            -156 hlineto
            -26 -215 -5 -53 -7 -56 -4 -56 rlinecurve
            -4 hlineto
            -10 56 -12 57 -10 52 -46 215 rcurveline
            -137 hlineto
            -48 -215 -9 -54 -12 -56 -10 -55 rlinecurve
            -4 hlineto
            -6 55 -5 55 -5 55 -26 215 rcurveline
            -168 hlineto
            return
          </CharString>
          <CharString index="20">
            172 hintmask 1100111010000000
            -55 callgsubr
            hintmask 1101011010000000
            484 -138 vlineto
            hintmask 1100111010000000
            -12 -46 rlineto
            -4 hlineto
            42 -36 -40 16 -48 hhcurveto
            -102 -106 -100 -152 -140 80 -104 124 42 41 16 28 31 hvcurveto
            -4 -50 rlineto
            -35 -6 -22 -27 -66 hhcurveto
            -38 -50 10 24 -46 hvcurveto
            160 callsubr
            rmoveto
            -46 -30 37 71 hvcurveto
            hintmask 1110011010000000
            75 34 35 38 22 26 -6 -18 20 vhcurveto
            -156 vlineto
            hintmask 1100111010000000
            -30 -20 -18 -8 -26 hhcurveto
            return
          </CharString>
          <CharString index="21">
            182 rmoveto
            32 14 32 19 22 vhcurveto
            75 -32 44 -18 -46 vvcurveto
            -48 -31 -18 -38 -44 -39 26 50 vhcurveto
            hintmask 11011000
            117 196 rmoveto
            -60 24 -34 22 42 vvcurveto
            44 27 18 31 40 24 -26 -44 -28 -10 -26 -18 -26 vhcurveto
            hintmask 11100100
            -264 -216 rmoveto
            -104 97 -70 129 139 93 76 102 84 -47 50 -62 33 vhcurveto
            4 vlineto
            hintmask 11011000
            45 29 36 46 58 vvcurveto
            108 -80 68 -118 -124 -88 -68 -112 -66 34 -46 50 -38 178 callsubr
            -60 -32 -44 -44 -74 vvcurveto
            endchar
          </CharString>
          <CharString index="22">
            72 hmoveto
            158 107 hlineto
            69 -14 93 -8 63 vhcurveto
            4 hlineto
            57 -130 105 -202 rlineto
            168 532 -158 -108 hlineto
            -69 14 -97 8 -58 vhcurveto
            -4 hlineto
            -57 131 -101 201 133 callsubr
            return
          </CharString>
          <CharString index="23">
            -32 -22 -18 -12 -32 hhcurveto
            -34 -16 16 64 hvcurveto
            286 -172 return
          </CharString>
          <CharString index="24">
            328 vlineto
            24 26 18 14 32 hhcurveto
            34 16 -16 -64 hvcurveto
            -286 172 308 vlineto
            124 -46 80 -110 return
          </CharString>
          <CharString index="25">
            rmoveto
            136 hlineto
            96 154 rlineto
            -114 hlineto
            -48 -74 rlineto
            -4 hlineto
            -48 74 rlineto
            -114 hlineto
            endchar
          </CharString>
          <CharString index="26">
            rmoveto
            40 28 30 38 38 -28 30 -40 -61 callgsubr
            -40 -28 -30 -38 -38 28 -30 40 hvcurveto
            return
          </CharString>
          <CharString index="27">
            -124 46 -80 110 68 46 30 48 40 vhcurveto
            4 hlineto
            return
          </CharString>
          <CharString index="28">
            -28 callgsubr
            -92 hlineto
            -24 -6 -14 -16 -30 hhcurveto
            -30 -14 16 24 -6 hvcurveto
            -92 150 callsubr
          </CharString>
          <CharString index="29">
            116 rmoveto
            -31 -38 21 89 -14 hvcurveto
            39 23 29 15 29 hhcurveto
            36 34 -15 -61 -67 -32 -21 -36 hvcurveto
            216 450 rmoveto
            42 -42 -66 38 -90 hhcurveto
            -136 -126 -110 -230 -230 126 -88 122 120 100 80 136 136 -84 60 -108 -34 -54 -22 -41 -31 hvcurveto
            128 6 49 43 62 hhcurveto
            36 40 -22 -22 20 hvcurveto
            endchar
          </CharString>
          <CharString index="30">
            rmoveto
            -54 -38 -36 -50 -50 38 -36 54 54 38 36 50 50 -38 36 -54 hvcurveto
            return
          </CharString>
          <CharString index="31">
            rmoveto
            96 72 78 130 130 -72 76 -96 -96 -72 -76 -130 -130 72 -78 96 hvcurveto
            94 vmoveto
            -26 -24 26 88 88 24 24 26 26 24 -24 -88 -88 -24 -26 -26 hvcurveto
            return
          </CharString>
          <CharString index="32">
            -5 -12 -65 callgsubr
            return
          </CharString>
          <CharString index="33">
            44 261 rmoveto
            -187 128 -86 145 72 70 25 53 49 vhcurveto
            -92 100 rlineto
            -20 -21 -30 -18 -40 hhcurveto
            -64 -43 46 93 87 53 50 58 33 22 -11 -23 28 hvcurveto
            92 102 rlineto
            40 -42 -64 32 -71 hhcurveto
            -147 90 callgsubr
            return
          </CharString>
          <CharString index="34">
            -40 -28 -30 -38 -38 28 -30 40 hvcurveto
            return
          </CharString>
          <CharString index="35">
            rmoveto
            -25 callgsubr
            hintmask 11110000
            34 22 18 26 40 vvcurveto
            68 -66 42 -74 -64 -40 -20 -48 -46 vhcurveto
            70 -62 rlineto
            20 16 18 16 24 hhcurveto
            24 16 -12 -22 -30 -27 -10 -41 hvcurveto
            -70 vlineto
            hintmask 11101000
            7 callsubr
          </CharString>
          <CharString index="36">
            vvcurveto
            36 -16 32 -16 18 vhcurveto
            endchar
          </CharString>
          <CharString index="37">
            -82 56 -72 94 54 44 24 36 40 vhcurveto
            4 hlineto
            return
          </CharString>
          <CharString index="38">
            27 callsubr
            -74 hlineto
            -36 -6 -21 -26 -43 hhcurveto
            -43 -21 26 36 -6 hvcurveto
            -74 43 callgsubr
            return
          </CharString>
          <CharString index="39">
            -43 -12 132 -111 -21 33 -21 376 136 return
          </CharString>
          <CharString index="40">
            111 callgsubr
            -3 callgsubr
            110 callsubr
            vhcurveto
            return
          </CharString>
          <CharString index="41">
            54 hmoveto
            308 144 -68 362 68 144 -308 -144 68 -362 -68 hlineto
            return
          </CharString>
          <CharString index="42">
            -4 -12 -16 -4 -16 hhcurveto
            -32 -28 18 55 hvcurveto
            171 114 134 -114 130 -142 vlineto
            -20 -130 -76 -6 rlineto
            -128 66 return
          </CharString>
          <CharString index="43">
            41 callsubr
            44 114 152 callgsubr
            -108 66 callsubr
            -114 172 hintmask 0011111001000000
            54 192 rmoveto
            hintmask 0101111001000000
            -80 callsubr
            hintmask 0011111001000000
            159 callsubr
            79 callgsubr
            hintmask 1001111001000000
            -81 callgsubr
            return
          </CharString>
          <CharString index="44">
            -84 -356 hlineto
            -116 -32 -42 -68 -68 -30 42 116 vhcurveto
            356 -172 -336 vlineto
            -222 88 -104 182 182 84 104 222 vhcurveto
            275 vlineto
            return
          </CharString>
          <CharString index="45">
            71 4 53 24 62 vvcurveto
            44 -34 36 -122 4 vhcurveto
            -16 -68 rlineto
            51 -4 13 -10 -16 vvcurveto
            return
          </CharString>
          <CharString index="46">
            12 -46 rlineto
            140 500 -134 hlineto
            return
          </CharString>
          <CharString index="47">
            rmoveto
            106 50 50 78 100 vvcurveto
            92 -36 54 -70 -50 -36 -36 -56 -50 38 -32 48 3 4 0 1 3 vhcurveto
            -60 -32 -39 -64 -28 vhcurveto
            return
          </CharString>
          <CharString index="48">
            rmoveto
            -69 callsubr
            return
          </CharString>
          <CharString index="49">
            -40 callgsubr
            60 124 hstem
            72 172 87 callsubr
            return
          </CharString>
          <CharString index="50">
            rmoveto
            62 hlineto
            68 36 -18 -56 -56 -36 -30 -68 hvcurveto
            -62 hlineto
            -136 vmoveto
            66 hlineto
            112 -218 rlineto
            192 hlineto
            -141 252 rlineto
            63 34 42 61 93 vvcurveto
            162 -120 48 -140 vhcurveto
            -246 -650 172 hlineto
            return
          </CharString>
          <CharString index="51">
            -41 callsubr
            152 callsubr
            -58 58 -58 120 16 callsubr
            hintmask 0011100011000000
            92 callgsubr
            hintmask 0101100011000000
            -70 callsubr
            hintmask 0011100011000000
            -104 callsubr
            hintmask 1001100011000000
            -95 callgsubr
            -69 418 rmoveto
            104 hlineto
            hintmask 0011010011000000
            66 callgsubr
            hintmask 0011100011000000
            -49 callsubr
            return
          </CharString>
          <CharString index="52">
            rmoveto
            39 hlineto
            51 30 -16 -41 -37 -27 -26 -52 hvcurveto
            -41 hlineto
            -116 vmoveto
            48 hlineto
            88 -162 rlineto
            180 hlineto
            -118 200 rlineto
            51 32 33 50 70 vvcurveto
            141 -110 39 -123 vhcurveto
            -221 -532 172 hlineto
            return
          </CharString>
          <CharString index="53">
            -234 172 return
          </CharString>
          <CharString index="54">
            -69 21 -43 callgsubr
            return
          </CharString>
          <CharString index="55">
            72 48 42 64 64 -48 42 -72 -72 -48 -42 -64 -64 48 -42 143 callgsubr
            18 26 26 17 18 21 21 17 -18 -26 -26 -17 -18 -21 hvcurveto
            endchar
          </CharString>
          <CharString index="56">
            26 31 -36 48 hhcurveto
            44 44 34 88 10 hvcurveto
            -74 hlineto
            -26 -6 -13 -10 -16 -26 -31 36 -48 hhcurveto
            -44 -44 128 callsubr
          </CharString>
          <CharString index="57">
            34 18 24 32 34 vvcurveto
            68 -62 40 -80 -78 -64 -40 -68 -40 24 -28 34 -24 vhcurveto
            -4 vlineto
            return
          </CharString>
          <CharString index="58">
            42 -62 rlineto
            104 hlineto
            -80 132 rlineto
            -136 hlineto
            return
          </CharString>
          <CharString index="59">
            -29 0 -39 callsubr
            return
          </CharString>
          <CharString index="60">
            -35 callsubr
            82 154 hstemhm
            42 174 140 172 hintmask 10001111
            -55 callgsubr
            hintmask 10010111
            31 callgsubr
            hintmask 10001111
            -38 -50 10 24 -46 hvcurveto
            hintmask 11100111
            160 callsubr
            rmoveto
            -46 -30 37 71 75 34 35 38 22 26 -6 -18 20 hvcurveto
            -156 vlineto
            -30 -20 -18 -8 -26 hhcurveto
            return
          </CharString>
          <CharString index="61">
            rmoveto
            136 hlineto
            -78 124 182 callsubr
            endchar
          </CharString>
          <CharString index="62">
            -62 54 -36 68 38 48 16 22 28 vhcurveto
            -38 86 rlineto
            -6 -9 -13 -8 78 callsubr
            return
          </CharString>
          <CharString index="63">
            107 -21 callsubr
            return
          </CharString>
          <CharString index="64">
            -44 -102 -12 hvcurveto
            86 hlineto
            32 8 return
          </CharString>
          <CharString index="65">
            72 hmoveto
            202 hlineto
            188 136 98 230 230 -136 92 -198 hvcurveto
            -192 hlineto
            172 -512 rmoveto
            374 10 vlineto
            94 74 -32 -152 -152 -74 -38 -94 hvcurveto
            return
          </CharString>
          <CharString index="66">
            -68 callsubr
            62 return
          </CharString>
          <CharString index="67">
            140 32 callsubr
            return
          </CharString>
          <CharString index="68">
            144 116 36 callsubr
            return
          </CharString>
          <CharString index="69">
            -45 -92 138 -27 -21 198 120 142 134 hstemhm
            162 208 -70 172 -152 172 hintmask 01110010
            20 -2 rmoveto
            hintmask 10110010
            -56 48 75 -34 103 hhcurveto
            132 114 74 120 hvcurveto
            hintmask 01111000
            82 -50 54 -72 22 vhcurveto
            4 vlineto
            hintmask 01110100
            68 30 34 54 61 vvcurveto
            115 -90 68 -140 -78 -66 -30 -52 -62 vhcurveto
            86 -104 rlineto
            34 40 30 18 42 hhcurveto
            43 23 -24 -38 hvcurveto
            hintmask 01111000
            -44 -32 -36 -106 vhcurveto
            -120 vlineto
            hintmask 10110010
            133 25 -34 -48 -40 -36 -28 -56 -45 -46 24 36 -39 hvcurveto
            endchar
          </CharString>
          <CharString index="70">
            -45 -12 138 136 120 130 134 hstemhm
            162 208 -70 172 -152 172 hintmask 11100100
            20 78 rmoveto
            -56 48 75 -34 103 hhcurveto
            132 114 66 120 hvcurveto
            hintmask 11110000
            80 -50 50 -72 22 vhcurveto
            4 vlineto
            hintmask 11101000
            68 30 34 46 61 vvcurveto
            115 -90 64 -140 -78 -66 -30 -52 -62 vhcurveto
            86 -104 rlineto
            34 40 30 18 42 hhcurveto
            43 23 -20 -38 hvcurveto
            hintmask 11110000
            -44 -32 -28 -106 vhcurveto
            -120 vlineto
            hintmask 11100100
            133 25 -28 -48 -40 -36 -20 -56 -45 -46 24 36 -39 hvcurveto
            endchar
          </CharString>
          <CharString index="71">
            rmoveto
            -288 -108 288 hlineto
            endchar
          </CharString>
          <CharString index="72">
            7 -186 134 68 138 218 -40 callsubr
            return
          </CharString>
          <CharString index="73">
            hstem
            -31 callgsubr
            return
          </CharString>
          <CharString index="74">
            -30 -8 -16 -20 -42 hhcurveto
            -42 -16 20 30 -8 hvcurveto
            return
          </CharString>
          <CharString index="75">
            -172 hlineto
            return
          </CharString>
          <CharString index="76">
            rmoveto
            62 hlineto
            68 36 -18 -56 -56 -36 -30 -68 hvcurveto
            -62 hlineto
            370 -354 rmoveto
            -141 252 rlineto
            63 34 42 61 93 vvcurveto
            162 -120 48 -140 vhcurveto
            -246 -650 172 218 66 hlineto
            112 -218 rlineto
            endchar
          </CharString>
          <CharString index="77">
            vstem
            40 hmoveto
            410 134 -196 hlineto
            190 274 rlineto
            92 -382 -134 168 vlineto
            -190 -274 rlineto
            return
          </CharString>
          <CharString index="78">
            vstem
            32 hmoveto
            421 140 -214 hlineto
            211 290 rlineto
            102 -396 -140 190 vlineto
            -212 -290 rlineto
            return
          </CharString>
          <CharString index="79">
            rmoveto
            39 hlineto
            51 30 -16 -41 -37 -27 -26 -52 hvcurveto
            -41 hlineto
            316 -278 rmoveto
            -118 200 rlineto
            51 32 33 50 70 vvcurveto
            141 -110 39 -123 vhcurveto
            -221 -532 172 162 48 hlineto
            88 -162 rlineto
            endchar
          </CharString>
          <CharString index="80">
            151 callgsubr
            -88 154 rlineto
            -164 hlineto
            endchar
          </CharString>
          <CharString index="81">
            rmoveto
            -26 -6 -13 -10 -16 -26 -31 36 -48 hhcurveto
            -44 -44 -34 -88 -10 hvcurveto
            74 hlineto
            134 callsubr
            return
          </CharString>
          <CharString index="82">
            -39 -206 106 192 callgsubr
            102 116 124 -102 114 return
          </CharString>
          <CharString index="83">
            rmoveto
            92 -36 rlineto
            58 90 34 78 122 vvcurveto
            122 -34 78 -58 90 vhcurveto
            -92 -36 rlineto
            42 -82 24 -82 -90 vvcurveto
            -90 -24 -82 -42 -82 vhcurveto
            endchar
          </CharString>
          <CharString index="84">
            10 callsubr
            119 callgsubr
            hlineto
            return
          </CharString>
          <CharString index="85">
            hstemhm
            -31 callgsubr
            return
          </CharString>
          <CharString index="86">
            -12 -45 callgsubr
            return
          </CharString>
          <CharString index="87">
            -102 -106 -98 -164 hvcurveto
            return
          </CharString>
          <CharString index="88">
            rmoveto
            88 24 48 58 82 vvcurveto
            68 -28 38 -50 -40 -32 -28 -38 -42 33 -24 36 vhcurveto
            1 1 0 1 hhcurveto
            -39 -28 -20 -54 -17 vhcurveto
            endchar
          </CharString>
          <CharString index="89">
            -45 -92 138 -25 -21 224 118 94 144 hstemhm
            80 152 88 172 hintmask 01111100
            22 hmoveto
            hintmask 10111100
            -52 52 74 -40 104 hhcurveto
            129 111 84 148 136 -94 66 -110 -21 -17 -2 -8 -22 hvcurveto
            8 104 rlineto
            228 144 -376 hlineto
            -16 -338 74 -48 rlineto
            24 38 16 6 34 hhcurveto
            50 36 -32 -56 -60 -34 -30 -60 -46 -44 26 34 -38 hvcurveto
            endchar
          </CharString>
          <CharString index="90">
            172 hintmask 1010111010000000
            36 250 rmoveto
            hintmask 1100111010000000
            49 callsubr
            hintmask 1010111010000000
            -8 callsubr
            hintmask 1101011010000000
            176 2 rmoveto
            88 34 32 36 22 26 -6 -18 20 vhcurveto
            -184 vlineto
            -28 -18 -20 -8 -26 hhcurveto
            -46 -28 34 90 hvcurveto
            return
          </CharString>
          <CharString index="91">
            -14 callsubr
            hhcurveto
            return
          </CharString>
          <CharString index="92">
            116 callgsubr
            80 124 hstem
            72 172 vstem
            103 callsubr
            return
          </CharString>
          <CharString index="93">
            -10 callgsubr
            -2 36 rmoveto
            26 6 12 10 16 return
          </CharString>
          <CharString index="94">
            276 rmoveto
            -36 -34 20 76 66 32 26 36 37 44 -20 -111 13 hvcurveto
            -42 -26 -33 -15 -33 hhcurveto
            -202 -316 rmoveto
            -38 58 44 -14 72 hhcurveto
            196 88 156 196 202 -102 130 -160 -121 -99 -84 -136 -138 74 -78 118 37 58 22 41 34 hvcurveto
            -130 -8 -47 -43 -82 hhcurveto
            -40 -28 12 20 -32 hvcurveto
            endchar
          </CharString>
          <CharString index="95">
            57 25 -14 -30 -24 -21 -14 -27 -30 -22 12 32 -24 hvcurveto
            return
          </CharString>
          <CharString index="96">
            vstem
            72 hmoveto
            172 162 hlineto
            62 88 144 -250 rlineto
            188 hlineto
            -232 386 194 264 rlineto
            -188 hlineto
            -164 -242 rlineto
            -4 242 -32 callsubr
            return
          </CharString>
          <CharString index="97">
            72 hmoveto
            172 140 hlineto
            42 52 112 -192 70 callsubr
            -196 310 164 222 rlineto
            -184 hlineto
            -116 -174 rlineto
            -4 174 -32 callsubr
            return
          </CharString>
          <CharString index="98">
            148 callsubr
            82 154 60 callgsubr
            hintmask 10001110
            35 callgsubr
            hlineto
            hintmask 11000110
            -7 callsubr
            hintmask 10010110
            28 148 rlineto
            hintmask 10001110
            1 callgsubr
            hintmask 10100110
            -12 86 118 callsubr
            return
          </CharString>
          <CharString index="99">
            12 -46 rlineto
            140 181 callsubr
            -162 hlineto
            6 -72 rlineto
            30 -30 -32 20 -54 hhcurveto
            -102 -102 -98 -164 hvcurveto
            return
          </CharString>
          <CharString index="100">
            278 vlineto
            62 24 44 22 36 hhcurveto
            22 16 -4 -4 18 hvcurveto
            return
          </CharString>
          <CharString index="101">
            -12 -34 callgsubr
            return
          </CharString>
          <CharString index="102">
            -77 callsubr
            -59 333 rmoveto
            11 45 16 62 16 78 14 66 rlinecurve
            4 hlineto
            16 -65 16 -79 16 -62 11 -45 rcurveline
            47 379 rmoveto
            -208 hlineto
            -198 -650 rlineto
            176 hlineto
            32 138 70 callsubr
            32 -138 70 callsubr
            endchar
          </CharString>
          <CharString index="103">
            -52 -20 48 76 76 20 48 52 52 20 -48 -76 -76 -20 -48 -52 hvcurveto
            return
          </CharString>
          <CharString index="104">
            71 callgsubr
            138 172 return
          </CharString>
          <CharString index="105">
            -77 callsubr
            -41 278 rmoveto
            6 28 11 48 11 66 11 51 rlinecurve
            4 hlineto
            13 -50 11 -67 11 -48 6 -28 rcurveline
            64 316 rmoveto
            46 callsubr
            180 hlineto
            endchar
          </CharString>
          <CharString index="106">
            72 hmoveto
            172 258 194 -258 172 119 callgsubr
            -242 -194 242 -32 callsubr
            return
          </CharString>
          <CharString index="107">
            -128 66 -366 172 366 84 134 -84 12 vlineto
            47 20 15 32 16 18 -4 -6 16 vhcurveto
            return
          </CharString>
          <CharString index="108">
            hstem
            58 172 vstem
            139 callsubr
            return
          </CharString>
          <CharString index="109">
            rmoveto
            -178 hlineto
            120 -124 rlineto
            136 hlineto
            hintmask 11111001
            20 -166 rmoveto
            -18 callgsubr
            hintmask 11111010
            -40 -28 -30 -38 hvcurveto
            hintmask 11111001
            -38 28 -30 40 vhcurveto
            -208 hmoveto
            hintmask 11110101
            -18 callgsubr
            hintmask 11111001
            -73 callsubr
            endchar
          </CharString>
          <CharString index="110">
            10 16 28 38 -42 54 hhcurveto
            54 return
          </CharString>
          <CharString index="111">
            60 20 rmoveto
            -54 -14 -20 -36 -12 -10 2 4 -14 vhcurveto
            -30 -126 rlineto
            -8 22 26 -6 46 hhcurveto
            150 44 102 112 hvcurveto
            474 -172 vlineto
            return
          </CharString>
          <CharString index="112">
            rmoveto
            136 hlineto
            120 124 151 callsubr
            return
          </CharString>
          <CharString index="113">
            rmoveto
            -208 154 -126 178 178 154 126 208 207 -154 123 -178 -178 -154 -122 -208 vhcurveto
            76 hmoveto
            160 110 102 146 146 110 -102 -160 -160 -110 -106 -146 -146 -110 106 160 vhcurveto
            return
          </CharString>
          <CharString index="114">
            -12 callsubr
            endchar
          </CharString>
          <CharString index="115">
            184 vlineto
            26 22 20 10 26 hhcurveto
            46 24 -34 -82 -96 -34 -32 -40 -22 -22 6 18 -20 hvcurveto
            return
          </CharString>
          <CharString index="116">
            164 hmoveto
            172 392 140 140 -452 -140 140 hlineto
            return
          </CharString>
          <CharString index="117">
            -20 callgsubr
            172 return
          </CharString>
          <CharString index="118">
            -69 callsubr
            -38 129 61 callsubr
          </CharString>
          <CharString index="119">
            -94 callsubr
            -8 36 rmoveto
            26 6 13 10 16 -51 callsubr
          </CharString>
          <CharString index="120">
            688 18 callsubr
            return
          </CharString>
          <CharString index="121">
            146 -125 -21 33 38 callgsubr
            return
          </CharString>
          <CharString index="122">
            rmoveto
            -28 callgsubr
            -76 hlineto
            -33 callsubr
            -76 150 callsubr
          </CharString>
          <CharString index="123">
            98 callsubr
            108 172 return
          </CharString>
          <CharString index="124">
            57 -14 99 -8 56 vhcurveto
            4 hlineto
            50 -126 65 -153 rlineto
            52 hlineto
            65 153 52 126 rlineto
            4 hlineto
            -8 -56 -14 -99 -57 vvcurveto
            -106 154 532 -171 vlineto
            -73 -196 -30 -84 rlineto
            -4 hlineto
            -30 84 -76 196 133 callsubr
            return
          </CharString>
          <CharString index="125">
            rmoveto
            -102 callgsubr
            return
          </CharString>
          <CharString index="126">
            -20 hstemhm
            42 124 -94 172 hintmask 11101000
            72 hmoveto
            hintmask 11110000
            47 hlineto
            -28 -18 -49 -46 -66 73 callsubr
            hintmask 11101000
            -38 86 rlineto
            -6 -8 -14 -8 -13 hhcurveto
            -19 -20 10 24 32 20 34 58 18 hvcurveto
            return
          </CharString>
          <CharString index="127">
            159 109 103 178 74 -19 61 -34 45 hvcurveto
            return
          </CharString>
          <CharString index="128">
            128 120 96 166 80 -28 64 -43 45 hvcurveto
            return
          </CharString>
          <CharString index="129">
            rmoveto
            140 callgsubr
            hintmask 11110000
            -46 -32 -34 -44 hvcurveto
            hintmask 11101000
            -44 32 -34 46 vhcurveto
            208 hmoveto
            hintmask 11100100
            140 callgsubr
            hintmask 11101000
            -90 callgsubr
            endchar
          </CharString>
          <CharString index="130">
            208 rmoveto
            58 114 18 38 18 42 16 38 rlinecurve
            4 hlineto
            -2 -43 -4 -64 -43 vvcurveto
            -82 vlineto
            228 hmoveto
            -68 372 -214 hlineto
            -216 -382 rlineto
            -120 270 -158 160 158 68 vlineto
            endchar
          </CharString>
          <CharString index="131">
            68 170 146 164 return
          </CharString>
          <CharString index="132">
            148 514 -20 return
          </CharString>
          <CharString index="133">
            hstemhm
            54 58 callsubr
            return
          </CharString>
          <CharString index="134">
            96 46 66 78 2 hvcurveto
            return
          </CharString>
          <CharString index="135">
            500 100 hstem
            38 120 78 120 vstem
            144 callgsubr
            215 hlineto
            15 16 12 10 18 hhcurveto
            28 4 -16 -36 hvcurveto
            -188 120 202 vlineto
            84 -30 54 -75 -45 -34 -24 return
          </CharString>
          <CharString index="136">
            1 -12 136 74 118 89 139 return
          </CharString>
          <CharString index="137">
            13 callgsubr
            80 124 return
          </CharString>
          <CharString index="138">
            72 hmoveto
            418 144 -246 506 -32 callsubr
            return
          </CharString>
          <CharString index="139">
            -12 -20 32 -20 return
          </CharString>
          <CharString index="140">
            -118 rmoveto
            -62 50 -32 62 34 48 14 22 28 vhcurveto
            74 callsubr
            -20 -20 10 24 28 14 24 34 28 hvcurveto
            -92 hlineto
            -24 -16 -46 -44 -60 vvcurveto
            endchar
          </CharString>
          <CharString index="141">
            -150 -124 -218 return
          </CharString>
          <CharString index="142">
            hstem
            280 172 vstem
            10 111 rmoveto
            -83 48 68 -40 106 hhcurveto
            150 70 108 130 hvcurveto
            424 -172 -410 vlineto
            -82 -26 -22 -46 -28 -32 20 42 -22 vhcurveto
            return
          </CharString>
          <CharString index="143">
            144 102 144 return
          </CharString>
          <CharString index="144">
            21 120 callgsubr
            return
          </CharString>
          <CharString index="145">
            66 16 26 55 43 vvcurveto
            109 -100 25 -118 vhcurveto
            -211 hlineto
            172 -208 rmoveto
            84 43 vlineto
            40 18 -10 -28 -26 -16 -20 -41 hvcurveto
            -44 -200 rmoveto
            94 vlineto
            return
          </CharString>
          <CharString index="146">
            rmoveto
            62 50 -108 150 108 150 -62 50 -134 -140 rlineto
            -120 vlineto
            return
          </CharString>
          <CharString index="147">
            94 58 82 86 94 hstem
            34 110 90 114 vstem
            186 return
          </CharString>
          <CharString index="148">
            -6 callgsubr
            84 136 return
          </CharString>
          <CharString index="149">
            28 152 2 74 rlineto
            -108 hlineto
            return
          </CharString>
          <CharString index="150">
            -196 108 109 -21 return
          </CharString>
          <CharString index="151">
            rmoveto
            21 17 -16 -24 -24 -17 -16 -21 -21 -17 16 24 24 17 16 21 hvcurveto
            -142 121 callsubr
            return
          </CharString>
          <CharString index="152">
            44 102 12 hvcurveto
            return
          </CharString>
          <CharString index="153">
            -206 hlineto
            -165 -532 rlineto
            174 hlineto
            21 94 rlineto
            140 hlineto
            21 -94 rlineto
            return
          </CharString>
          <CharString index="154">
            298 -12 rmoveto
            146 100 124 208 207 -100 119 -146 -146 -100 -118 -208 -208 100 -124 146 hvcurveto
            138 vmoveto
            return
          </CharString>
          <CharString index="155">
            rmoveto
            hintmask 10111000
            42 callsubr
            hintmask 11011000
            6 -226 rlineto
            endchar
          </CharString>
          <CharString index="156">
            -162 80 -100 124 18 callgsubr
            vhcurveto
            4 hlineto
            return
          </CharString>
          <CharString index="157">
            213 0 138 183 179 0 -20 return
          </CharString>
          <CharString index="158">
            87 6 callgsubr
            return
          </CharString>
          <CharString index="159">
            60 callsubr
            hintmask 11111010
            50 return
          </CharString>
          <CharString index="160">
            270 324 69 callgsubr
            return
          </CharString>
          <CharString index="161">
            rmoveto
            62 callsubr
            return
          </CharString>
          <CharString index="162">
            104 hstemhm
            50 302 -240 132 hintmask 10100000
            112 return
          </CharString>
          <CharString index="163">
            -126 hlineto
            -48 -30 -46 -18 -72 -14 rrcurveto
            -106 120 return
          </CharString>
          <CharString index="164">
            hstemhm
            65 callgsubr
            return
          </CharString>
          <CharString index="165">
            172 134 callgsubr
            return
          </CharString>
          <CharString index="166">
            hstemhm
            44 176 return
          </CharString>
          <CharString index="167">
            rmoveto
            hintmask 11111100
            -102 callgsubr
            return
          </CharString>
          <CharString index="168">
            rmoveto
            -50 callgsubr
            72 callsubr
          </CharString>
          <CharString index="169">
            -75 callgsubr
            -73 callsubr
            return
          </CharString>
          <CharString index="170">
            -43 -188 97 callgsubr
            return
          </CharString>
          <CharString index="171">
            rmoveto
            115 callgsubr
            96 hlineto
            return
          </CharString>
          <CharString index="172">
            34 callsubr
            hvcurveto
            return
          </CharString>
          <CharString index="173">
            136 72 136 return
          </CharString>
          <CharString index="174">
            -12 128 164 120 108 138 hstem
            return
          </CharString>
          <CharString index="175">
            rmoveto
            -62 callsubr
            68 callgsubr
            return
          </CharString>
          <CharString index="176">
            564 136 44 114 hstem
            -172 66 callsubr
            vstem
            return
          </CharString>
          <CharString index="177">
            rlineto
            182 hlineto
            return
          </CharString>
          <CharString index="178">
            -90 callgsubr
            -64 callgsubr
            hvcurveto
            hintmask 11110100
            -46 -32 -34 -44 hvcurveto
            return
          </CharString>
          <CharString index="179">
            -16 -10 -5 -16 -3 vhcurveto
            endchar
          </CharString>
          <CharString index="180">
            vvcurveto
            -62 54 -36 68 38 48 16 22 28 vhcurveto
            return
          </CharString>
          <CharString index="181">
            -34 76 rlineto
            -6 -8 -14 -6 -12 hhcurveto
            return
          </CharString>
          <CharString index="182">
            -21 162 116 120 134 return
          </CharString>
          <CharString index="183">
            472 120 -472 hlineto
            return
          </CharString>
          <CharString index="184">
            -297 146 callsubr
            return
          </CharString>
          <CharString index="185">
            -12 hhcurveto
            -20 -20 10 24 return
          </CharString>
          <CharString index="186">
            574 154 hstem
            return
          </CharString>
          <CharString index="187">
            hintmask 10100000
            86 callsubr
            return
          </CharString>
          <CharString index="188">
            rmoveto
            122 vlineto
            16 14 12 6 16 hhcurveto
            28 16 -20 -54 -62 -22 -22 -24 -14 -12 4 10 -14 hvcurveto
            endchar
          </CharString>
          <CharString index="189">
            -70 callgsubr
            hintmask 11110100
            return
          </CharString>
          <CharString index="190">
            94 226 94 hstem
            22 118 callgsubr
            vstem
            190 return
          </CharString>
          <CharString index="191">
            -21 366 146 return
          </CharString>
          <CharString index="192">
            324 -91 callgsubr
            return
          </CharString>
          <CharString index="193">
            -148 574 rmoveto
            104 hlineto
            66 callgsubr
            -49 callsubr
            return
          </CharString>
          <CharString index="194">
            vstem
            -70 callgsubr
            return
          </CharString>
          <CharString index="195">
            215 200 108 hstem
            44 712 vstem
            44 200 rmoveto
            712 108 -712 hlineto
            endchar
          </CharString>
          <CharString index="196">
            96 120 rlineto
            -124 hlineto
            endchar
          </CharString>
          <CharString index="197">
            131 293 133 return
          </CharString>
          <CharString index="198">
            184 191 callgsubr
            return
          </CharString>
          <CharString index="199">
            174 callsubr
            50 124 -34 callsubr
            166 168 vstem
            return
          </CharString>
          <CharString index="200">
            57 callsubr
            -84 132 hintmask 11111000
            return
          </CharString>
          <CharString index="201">
            94 96 72 36 104 hstem
            76 104 42 122 vstem
            24 return
          </CharString>
          <CharString index="202">
            hstemhm
            28 callgsubr
            return
          </CharString>
          <CharString index="203">
            142 hstem
            40 140 vstem
            40 return
          </CharString>
          <CharString index="204">
            -166 120 -96 128 return
          </CharString>
          <CharString index="205">
            hstemhm
            42 164 return
          </CharString>
          <CharString index="206">
            -61 callgsubr
            hvcurveto
            return
          </CharString>
          <CharString index="207">
            146 callgsubr
            708 98 callgsubr
            return
          </CharString>
          <CharString index="208">
            41 -54 callsubr
            50 140 276 140 return
          </CharString>
          <CharString index="209">
            580 hstem
            62 118 vstem
            154 return
          </CharString>
          <CharString index="210">
            72 hmoveto
            164 callsubr
            hlineto
            return
          </CharString>
          <CharString index="211">
            -111 0 134 232 134 return
          </CharString>
          <CharString index="212">
            90 hstem
            148 128 vstem
            276 return
          </CharString>
          <CharString index="213">
            148 102 140 136 148 return
          </CharString>
          <CharString index="214">
            34 48 14 22 28 hvcurveto
            return
          </CharString>
          <CharString index="215">
            rlineto
            4 hlineto
            48 return
          </CharString>
          <CharString index="216">
            -288 -108 hlineto
            hintmask 11101000
            288 hlineto
            endchar
          </CharString>
          <CharString index="217">
            -58 -42 -46 -58 return
          </CharString>
          <CharString index="218">
            58 76.5 -76.5 80 -80 146 60 callgsubr
            return
          </CharString>
          <CharString index="219">
            rmoveto
            -12 callgsubr
            endchar
          </CharString>
          <CharString index="220">
            -54 -32 72 -84 hhcurveto
            -52 -54 -28 -80 -54 hvcurveto
            return
          </CharString>
          <CharString index="221">
            rmoveto
            -54 36 58 -26 70 hhcurveto
            return
          </CharString>
          <CharString index="222">
            vstem
            44 320 rmoveto
            -222 return
          </CharString>
          <CharString index="223">
            -269 37 callsubr
            return
          </CharString>
          <CharString index="224">
            hstem
            -10 604 vstem
            return
          </CharString>
          <CharString index="225">
            rlineto
            -140 hlineto
            return
          </CharString>
          <CharString index="226">
            -164 -288 return
          </CharString>
          <CharString index="227">
            -10 -16 vvcurveto
            -16 return
          </CharString>
          <CharString index="228">
            vmoveto
            72 48 40 62 62 -48 40 -72 -72 -48 -40 -62 -62 48 -40 72 hvcurveto
            return
          </CharString>
          <CharString index="229">
            328 vlineto
            26 26 24 12 20 hhcurveto
            34 16 -16 -64 hvcurveto
            -286 172 return
          </CharString>
          <CharString index="230">
            140 -119 -21 33 -21 182 callgsubr
            184 98 callgsubr
            return
          </CharString>
          <CharString index="231">
            2 hlineto
            534 280 rlineto
            4 vlineto
            -534 280 rlineto
            -2 hlineto
            endchar
          </CharString>
          <CharString index="232">
            580 hstem
            100 118 vstem
            34 return
          </CharString>
          <CharString index="233">
            132 hstem
            112 78 vstem
            54 return
          </CharString>
          <CharString index="234">
            37 callgsubr
            vstem
            return
          </CharString>
          <CharString index="235">
            -34 -88 -10 hvcurveto
            endchar
          </CharString>
          <CharString index="236">
            46 154 rlineto
            4 hlineto
            -12 -120 rlineto
            -80 106 316 -126 vlineto
            return
          </CharString>
          <CharString index="237">
            80 hlineto
            136 124 69 159 164 -120 52 -140 hvcurveto
            return
          </CharString>
          <CharString index="238">
            156 callgsubr
            124 return
          </CharString>
          <CharString index="239">
            -20 hstem
            58 172 vstem
            35 callgsubr
            return
          </CharString>
          <CharString index="240">
            rlineto
            -32 callsubr
            return
          </CharString>
          <CharString index="241">
            179 callsubr
            26 31 -36 48 hhcurveto
            44 44 34 88 10 hvcurveto
            return
          </CharString>
          <CharString index="242">
            168 hstem
            202 172 vstem
            66 hmoveto
            422 138 -114 return
          </CharString>
          <CharString index="243">
            -21 532 -20 return
          </CharString>
          <CharString index="244">
            32 callgsubr
            26 callsubr
            return
          </CharString>
          <CharString index="245">
            84 callsubr
            -12 98 callgsubr
            120 172 return
          </CharString>
          <CharString index="246">
            58 hmoveto
            175 callsubr
            return
          </CharString>
          <CharString index="247">
            -295 -188 134 554 -20 return
          </CharString>
          <CharString index="248">
            90 hstem
            84 128 vstem
            84 return
          </CharString>
          <CharString index="249">
            hlineto
            -28 -46 -4 -4 -32 hvcurveto
            return
          </CharString>
          <CharString index="250">
            182 -58 rmoveto
            94 hlineto
            return
          </CharString>
          <CharString index="251">
            176 hintmask 11110100
            return
          </CharString>
          <CharString index="252">
            700 124 hstem
            return
          </CharString>
          <CharString index="253">
            21 38 callgsubr
            return
          </CharString>
          <CharString index="254">
            132 142 120 124 132 -22 callsubr
            return
          </CharString>
          <CharString index="255">
            -167 21 171 callsubr
            return
          </CharString>
          <CharString index="256">
            177 -109 98 -159 -161 -109 -97 -178 return
          </CharString>
          <CharString index="257">
            hlineto
            -78 8 44 -46 90 hhcurveto
            endchar
          </CharString>
          <CharString index="258">
            rlineto
            -178 hlineto
            return
          </CharString>
          <CharString index="259">
            132 -70 70 return
          </CharString>
          <CharString index="260">
            168 hstem
            154 172 vstem
            154 hmoveto
            172 return
          </CharString>
          <CharString index="261">
            -248 194 rmoveto
            288 78 -288 hlineto
            endchar
          </CharString>
          <CharString index="262">
            208 hstem
            60 200 vstem
            60 return
          </CharString>
          <CharString index="263">
            rmoveto
            110 1000 -110 hlineto
            return
          </CharString>
          <CharString index="264">
            324 rmoveto
            104 hlineto
            return
          </CharString>
          <CharString index="265">
            134 callgsubr
            vstem
            return
          </CharString>
          <CharString index="266">
            12 -66 rlineto
            140 return
          </CharString>
          <CharString index="267">
            164 172 return
          </CharString>
          <CharString index="268">
            146 -113 38 callgsubr
            152 callgsubr
            return
          </CharString>
          <CharString index="269">
            -12 138 108 120 164 128 hstem
            return
          </CharString>
          <CharString index="270">
            174 hstem
            170 96 164 96 vstem
            110 return
          </CharString>
          <CharString index="271">
            172 147 callgsubr
            return
          </CharString>
          <CharString index="272">
            -12 146 callgsubr
            return
          </CharString>
          <CharString index="273">
            122 hintmask 11110000
            return
          </CharString>
          <CharString index="274">
            hstemhm
            32 176 return
          </CharString>
          <CharString index="275">
            47 hlineto
            48 20 -16 -30 -27 -19 -21 -49 hvcurveto
            return
          </CharString>
          <CharString index="276">
            rrcurveto
            106 -440 -144 258 vlineto
            -116 return
          </CharString>
          <CharString index="277">
            rrcurveto
            106 -454 -144 272 vlineto
            -118 return
          </CharString>
          <CharString index="278">
            -21 362 150 -12 -20 22 -20 30 -20 return
          </CharString>
          <CharString index="279">
            700 74 36 14 hstem
            -142 284 vstem
            return
          </CharString>
          <CharString index="280">
            62 188 callgsubr
            return
          </CharString>
          <CharString index="281">
            45 21 105 callgsubr
            return
          </CharString>
          <CharString index="282">
            172 79 callgsubr
            return
          </CharString>
          <CharString index="283">
            -101 0 140 392 -20 return
          </CharString>
          <CharString index="284">
            88 499 rmoveto
            -66 -5 rlineto
            return
          </CharString>
          <CharString index="285">
            vhcurveto
            -4 vlineto
            hintmask 11100100
            return
          </CharString>
          <CharString index="286">
            26 6 13 10 16 return
          </CharString>
          <CharString index="287">
            -225 -152 90 return
          </CharString>
          <CharString index="288">
            696 -172 return
          </CharString>
          <CharString index="289">
            rlineto
            -180 hlineto
            return
          </CharString>
          <CharString index="290">
            47 260 rmoveto
            return
          </CharString>
          <CharString index="291">
            hstemhm
            80 200 -183 166 hintmask 01100000
            return
          </CharString>
          <CharString index="292">
            hhcurveto
            70 68 64 116 100 -52 68 -78 return
          </CharString>
          <CharString index="293">
            140 -107 -21 182 callgsubr
            0 -20 return
          </CharString>
          <CharString index="294">
            47 21 -21 196 148 188 -20 return
          </CharString>
          <CharString index="295">
            124 58 callgsubr
            return
          </CharString>
          <CharString index="296">
            124 57 callsubr
            return
          </CharString>
          <CharString index="297">
            96 90 -224 hlineto
            endchar
          </CharString>
          <CharString index="298">
            172 144 return
          </CharString>
          <CharString index="299">
            rlineto
            -176 hlineto
            return
          </CharString>
        <CharString name=".notdef">
          119 0 104 452 104 hstem
          76 112 328 112 vstem
          76 hmoveto
          552 660 -552 hlineto
          112 -488 rmoveto
          336 vlineto
          82 -168 rlineto
          164 hmoveto
          82 168 rlineto
          -336 vlineto
          -228 -68 rmoveto
          26 56 36 96 rlineto
          4 hlineto
          36 -96 26 -56 rlineto
          -66 320 rmoveto
          -40 96 -18 36 53 callgsubr
          -18 -36 -40 -96 rlineto
          endchar
        </CharString>
        <CharString name="A">
          -58 callgsubr
          117 callsubr
          229 271 -105 callsubr
        </CharString>
        <CharString name="A.sc">
          -53 callsubr
          117 callgsubr
          213 216 -104 callgsubr
        </CharString>
        <CharString name="A.sups">
          -188 350 91 163 88 hstem
          -7 412 vstem
          157 441 rmoveto
          7 29 9 40 13 51 9 43 rlinecurve
          2 hlineto
          11 -42 12 -52 9 -40 7 -29 rcurveline
          41 -181 rmoveto
          128 hlineto
          -133 432 rlineto
          -146 hlineto
          -133 -432 rlineto
          123 hlineto
          21 90 rlineto
          119 hlineto
          endchar
        </CharString>
        <CharString name="AE">
          269 0 144 -12 133 -5 36 callsubr
          -128 128 hstemhm
          380 172 hintmask 01001100
          272 265 rmoveto
          36 83 22 52 22 60 24 62 rlinecurve
          4 -257 hlineto
          hintmask 10110100
          172 -121 rmoveto
          116 202 144 -202 102 238 144 -516 vlineto
          -296 -650 rlineto
          180 hlineto
          hintmask 01010100
          57 132 rlineto
          165 hlineto
          hintmask 10110100
          -132 420 144 vlineto
          endchar
        </CharString>
        <CharString name="AE.sc">
          167 0 132 -38 122 -10 124 70 132 hstemhm
          326 172 hintmask 01011000
          247 216 rmoveto
          26 61 16 36 15 47 18 48 rlinecurve
          4 -192 hlineto
          hintmask 10111000
          172 -84 rmoveto
          74 162 124 -162 70 190 132 -467 vlineto
          -243 -532 rlineto
          177 hlineto
          hintmask 01011000
          40 94 rlineto
          131 hlineto
          hintmask 10111000
          -94 372 132 vlineto
          endchar
        </CharString>
        <CharString name="Aacute">
          -58 callgsubr
          50 124 117 callsubr
          462 56 callgsubr
          -111 -429 -105 callsubr
        </CharString>
        <CharString name="Aacute.sc">
          -53 callsubr
          60 124 117 callgsubr
          428 716 -82 callgsubr
          -93 -376 -104 callgsubr
        </CharString>
        <CharString name="Abreve">
          -58 callgsubr
          50 124 117 callsubr
          338 824 -7 callgsubr
          -201 -553 -105 callsubr
        </CharString>
        <CharString name="Abreve.sc">
          -53 callsubr
          60 124 117 callgsubr
          304 716 -7 callgsubr
          -183 -500 -104 callgsubr
        </CharString>
        <CharString name="Acircumflex">
          -58 callgsubr
          50 124 117 callsubr
          286 758 rmoveto
          4 hlineto
          48 -58 52 callgsubr
          -96 124 rlineto
          -168 hlineto
          -96 -124 52 callgsubr
          -9 -429 -105 callsubr
        </CharString>
        <CharString name="Acircumflex.sc">
          -53 callsubr
          60 124 117 callgsubr
          252 650 rmoveto
          4 hlineto
          48 -58 52 callgsubr
          -96 124 rlineto
          -168 hlineto
          -96 -124 52 callgsubr
          9 -376 -104 callgsubr
        </CharString>
        <CharString name="Adieresis">
          -58 callgsubr
          44 156 hstem
          106 127 callsubr
          392 694 45 callgsubr
          45 -423 -105 callsubr
        </CharString>
        <CharString name="Adieresis.sc">
          -53 callsubr
          54 156 hstem
          72 127 callsubr
          358 586 45 callgsubr
          63 -370 -104 callgsubr
        </CharString>
        <CharString name="Agrave">
          -58 callgsubr
          50 124 117 callsubr
          372 700 21 callgsubr
          -7 -429 -105 callsubr
        </CharString>
        <CharString name="Agrave.sc">
          -53 callsubr
          60 124 117 callgsubr
          338 592 21 callgsubr
          11 -376 -104 callgsubr
        </CharString>
        <CharString name="Amacron">
          -58 callgsubr
          66 108 hstem
          140 296 vstem
          436 824 126 callgsubr
          -207 -445 -105 callsubr
        </CharString>
        <CharString name="Amacron.sc">
          -53 callsubr
          76 108 hstem
          106 296 vstem
          402 716 126 callgsubr
          -189 -392 -104 callgsubr
        </CharString>
        <CharString name="Aogonek">
          -1 160 callgsubr
          139 -53 callgsubr
          hstem
          376 124 vstem
          229 271 rmoveto
          11 45 16 62 16 78 14 66 rlinecurve
          4 hlineto
          16 -65 16 -79 16 -62 11 -45 rcurveline
          225 -375 135 callgsubr
          -198 650 rlineto
          -208 hlineto
          -198 -650 rlineto
          176 hlineto
          32 138 70 callsubr
          32 -138 rlineto
          48 hlineto
          -32 -17 -52 -48 -65 73 callsubr
          endchar
        </CharString>
        <CharString name="Aogonek.sc">
          -69 160 callgsubr
          139 -43 callgsubr
          hstem
          308 124 vstem
          213 216 rmoveto
          6 28 11 48 11 66 11 51 rlinecurve
          4 hlineto
          13 -50 11 -67 11 -48 6 -28 rcurveline
          209 -320 135 callgsubr
          -165 532 rlineto
          46 callsubr
          46 hlineto
          -32 -17 -52 -48 -65 73 callsubr
          endchar
        </CharString>
        <CharString name="Aring">
          -58 callgsubr
          46 62 80 62 hstem
          168 82 76 82 vstem
          288 838 44 callsubr
          -59 -425 -105 callsubr
        </CharString>
        <CharString name="Aring.sc">
          -53 callsubr
          56 62 80 62 hstem
          134 82 76 82 vstem
          254 730 44 callsubr
          -41 -372 -104 callgsubr
        </CharString>
        <CharString name="Atilde">
          -58 callgsubr
          50 146 117 callsubr
          382 846 rmoveto
          -99 callsubr
          128 callgsubr
          -239 -575 -105 callsubr
        </CharString>
        <CharString name="Atilde.sc">
          -53 callsubr
          60 146 117 callgsubr
          348 738 rmoveto
          -99 callsubr
          128 callgsubr
          -221 -522 -104 callgsubr
        </CharString>
        <CharString name="B">
          27 0 147 callsubr
          140 168 -138 168 hintmask 11110100
          109 callgsubr
          hintmask 11111000
          33 callgsubr
          hintmask 11110100
          174 callgsubr
          endchar
        </CharString>
        <CharString name="B.sc">
          -31 0 124 94 106 84 124 -22 callsubr
          101 156 -142 165 hintmask 11110100
          72 hmoveto
          229 hlineto
          100 callgsubr
          4 vlineto
          hintmask 11111000
          38 callsubr
          hintmask 11110100
          168 callsubr
          endchar
        </CharString>
        <CharString name="B.sups">
          -172 260 91 90 82 78 91 hstemhm
          47 120 90 117 -98 117 hintmask 11110100
          183 callsubr
          175 hlineto
          93 78 40 89 56 -30 32 -61 12 hvcurveto
          2 vlineto
          hintmask 11111000
          51 16 21 42 37 vvcurveto
          84 -75 22 -91 vhcurveto
          -161 hlineto
          120 -169 rmoveto
          78 37 vlineto
          37 16 -11 -24 -24 -17 -19 -36 hvcurveto
          -37 -172 rmoveto
          90 vlineto
          hintmask 11110100
          46 hlineto
          44 19 -13 -29 -30 -19 -18 -44 hvcurveto
          endchar
        </CharString>
        <CharString name="C">
          1 -21 callsubr
          137 callgsubr
          -77 callgsubr
          endchar
        </CharString>
        <CharString name="C.sc">
          -59 -42 callgsubr
          hstem
          44 174 vstem
          -74 callsubr
          endchar
        </CharString>
        <CharString name="C.sups">
          -190 252 102 242 104 hstem
          29 123 vstem
          29 471 rmoveto
          -146 95 -73 112 59 51 21 45 38 vhcurveto
          -65 71 rlineto
          -21 -19 -24 -14 -33 hhcurveto
          -55 -36 44 77 75 43 46 51 27 18 -10 -18 22 hvcurveto
          65 73 rlineto
          33 -29 -48 26 -57 hhcurveto
          -113 -102 -85 -144 hvcurveto
          endchar
        </CharString>
        <CharString name="Cacute">
          1 -21 callsubr
          38 124 137 callgsubr
          -77 callgsubr
          478 504 -82 callgsubr
          endchar
        </CharString>
        <CharString name="Cacute.sc">
          -59 131 callsubr
          hstem
          44 174 vstem
          -74 callsubr
          442 455 -82 callgsubr
          endchar
        </CharString>
        <CharString name="Ccaron">
          1 -21 callsubr
          38 124 137 callgsubr
          -77 callgsubr
          354 504 -100 callsubr
        </CharString>
        <CharString name="Ccaron.sc">
          -59 131 callsubr
          hstem
          44 174 vstem
          -74 callsubr
          318 455 -100 callsubr
        </CharString>
        <CharString name="Ccedilla">
          1 -224 66 171 -21 522 148 137 callgsubr
          102 122 vstem
          474 188 rmoveto
          -30 -28 -36 -22 -50 hhcurveto
          -84 -56 68 122 118 66 70 78 42 28 -16 -28 32 hvcurveto
          94 106 rlineto
          46 -46 -70 40 -82 hhcurveto
          -168 34 callsubr
          -196 113 -109 143 -23 hvcurveto
          -34 -68 rlineto
          -79 callgsubr
          13 31 64 9 59 31 46 53 rlinecurve
          endchar
        </CharString>
        <CharString name="Ccedilla.sc">
          -59 -224 66 172 -21 411 140 hstem
          44 174 64 122 vstem
          416 166 rmoveto
          -20 -21 -30 -18 -40 hhcurveto
          -64 -43 46 93 87 53 50 58 33 22 -11 -23 28 hvcurveto
          92 102 rlineto
          40 -42 -64 32 -71 hhcurveto
          -147 70 callgsubr
          -162 96 -86 120 -20 hvcurveto
          -34 -69 rlineto
          -79 callgsubr
          13 31 56 8 54 24 39 43 rlinecurve
          endchar
        </CharString>
        <CharString name="Ccircumflex">
          1 -21 callsubr
          38 124 137 callgsubr
          -77 callgsubr
          254 380 -101 callsubr
          endchar
        </CharString>
        <CharString name="Ccircumflex.sc">
          -59 131 callsubr
          hstem
          44 174 vstem
          -74 callsubr
          218 331 -101 callsubr
          endchar
        </CharString>
        <CharString name="Cdotaccent">
          1 -21 callsubr
          34 172 137 callgsubr
          32 192 -77 callgsubr
          304 376 -89 callsubr
          endchar
        </CharString>
        <CharString name="Cdotaccent.sc">
          -59 -42 callgsubr
          44 172 hstemhm
          44 174 -2 192 hintmask 11110000
          -74 callsubr
          hintmask 11101000
          268 327 -89 callsubr
          endchar
        </CharString>
        <CharString name="D">
          57 0 138 374 138 -34 callsubr
          178 176 vstem
          -42 callsubr
          endchar
        </CharString>
        <CharString name="D.sc">
          5 0 165 callgsubr
          -34 callsubr
          126 176 vstem
          -37 callgsubr
          endchar
        </CharString>
        <CharString name="D.sups">
          -152 260 95 242 95 hstem
          47 120 114 123 vstem
          183 callsubr
          137 hlineto
          128 92 65 155 152 -92 60 -135 hvcurveto
          -130 hlineto
          120 -337 rmoveto
          242 6 vlineto
          62 46 -17 -102 -99 -46 -24 -62 hvcurveto
          endchar
        </CharString>
        <CharString name="Dcaron">
          57 0 138 374 138 50 124 -34 callsubr
          178 176 vstem
          -42 callsubr
          118 686 -100 callsubr
        </CharString>
        <CharString name="Dcaron.sc">
          2 0 165 callgsubr
          60 124 -34 callsubr
          126 176 vstem
          -37 callgsubr
          94 583 -100 callsubr
        </CharString>
        <CharString name="Dcroat">
          -16 callgsubr
        </CharString>
        <CharString name="Dcroat.sc">
          -11 callgsubr
        </CharString>
        <CharString name="E">
          -48 callsubr
          hstem
          72 172 vstem
          -93 callsubr
          endchar
        </CharString>
        <CharString name="E.sc">
          -40 callgsubr
          hstem
          72 172 87 callsubr
          endchar
        </CharString>
        <CharString name="E.sups">
          -209 260 99 72 99 63 185 callgsubr
          292 99 -172 72 142 99 -142 63 166 99 -286 hlineto
          endchar
        </CharString>
        <CharString name="Eacute">
          -48 callsubr
          50 124 hstem
          72 172 vstem
          -93 callsubr
          392 174 -82 callgsubr
          endchar
        </CharString>
        <CharString name="Eacute.sc">
          -58 callsubr
          373 184 -82 callgsubr
          endchar
        </CharString>
        <CharString name="Ebreve">
          -48 callsubr
          50 124 hstem
          72 172 vstem
          -93 callsubr
          218 50 rmoveto
          -79 callsubr
        </CharString>
        <CharString name="Ebreve.sc">
          -58 callsubr
          199 60 rmoveto
          -79 callsubr
        </CharString>
        <CharString name="Ecaron">
          -48 callsubr
          50 124 hstem
          72 172 vstem
          -93 callsubr
          268 174 -100 callsubr
        </CharString>
        <CharString name="Ecaron.sc">
          -58 callsubr
          249 184 -100 callsubr
        </CharString>
        <CharString name="Ecircumflex">
          -48 callsubr
          50 124 hstem
          72 172 vstem
          -93 callsubr
          168 50 -101 callsubr
          endchar
        </CharString>
        <CharString name="Ecircumflex.sc">
          -58 callsubr
          149 60 -101 callsubr
          endchar
        </CharString>
        <CharString name="Edieresis">
          -48 callsubr
          44 156 -22 callsubr
          -136 156 52 176 hintmask 11101010
          -93 callsubr
          hintmask 11110110
          114 44 -103 callsubr
        </CharString>
        <CharString name="Edieresis.sc">
          -40 callgsubr
          54 156 -22 callsubr
          -155 37 callgsubr
          hintmask 11101000
          -70 callgsubr
          hintmask 11110110
          95 54 -103 callsubr
        </CharString>
        <CharString name="Edotaccent">
          -48 callsubr
          46 172 -22 callsubr
          -50 192 hintmask 11101000
          -93 callsubr
          hintmask 11110100
          218 46 -89 callsubr
          endchar
        </CharString>
        <CharString name="Edotaccent.sc">
          -40 callgsubr
          56 172 -22 callsubr
          -69 192 hintmask 11101000
          82 callsubr
          199 56 -89 callsubr
          endchar
        </CharString>
        <CharString name="Egrave">
          -48 callsubr
          50 124 hstem
          72 172 vstem
          -93 callsubr
          166 50 -46 callsubr
        </CharString>
        <CharString name="Egrave.sc">
          -58 callsubr
          147 60 -46 callsubr
        </CharString>
        <CharString name="Emacron">
          -48 callsubr
          66 108 -22 callsubr
          -102 296 hintmask 11111000
          -93 callsubr
          hintmask 11110100
          70 66 -35 callgsubr
        </CharString>
        <CharString name="Emacron.sc">
          -40 callgsubr
          76 108 -22 callsubr
          -121 296 hintmask 11111000
          82 callsubr
          51 76 -35 callgsubr
        </CharString>
        <CharString name="Eogonek">
          -29 160 callgsubr
          118 -39 callsubr
          -34 callsubr
          44 124 vstem
          72 hmoveto
          296 hlineto
          -33 -20 -47 -47 -63 -33 callgsubr
          41 38 43 46 hvcurveto
          6 144 -258 116 212 144 -212 102 248 144 -420 hlineto
          endchar
        </CharString>
        <CharString name="Eogonek.sc">
          -77 160 callgsubr
          118 132 74 124 70 132 -22 callsubr
          -4 124 hintmask 01111000
          72 hmoveto
          hintmask 11110100
          248 hlineto
          -33 -20 -47 -47 -63 -33 callgsubr
          41 38 43 46 hvcurveto
          6 132 hlineto
          hintmask 01111000
          -78 callgsubr
          endchar
        </CharString>
        <CharString name="Eth">
          -16 callgsubr
        </CharString>
        <CharString name="Eth.sc">
          -11 callgsubr
        </CharString>
        <CharString name="Euro">
          -45 -12 132 88 84 44 80.5 -80.5 84 94 132 -22 callsubr
          hintmask 11011100
          436 168 rmoveto
          -30 -22 -26 -18 -34 hhcurveto
          -46 -33 30 58 -18 hvcurveto
          155 84 -167 hlineto
          -1 8 0 9 9 6 0 6 6 vvcurveto
          208 84 -197 hlineto
          61 15 32 33 46 hhcurveto
          32 24 -16 -22 24 hvcurveto
          94 92 rlineto
          52 -46 -62 26 -60 hhcurveto
          hintmask 11101100
          -134 -103 -81 -146 -34 hvcurveto
          -63 -5 rlineto
          -78 53 vlineto
          -1 -8 0 -8 -8 -7 0 -8 -7 vvcurveto
          -52 -4 rlineto
          -78 63 vlineto
          -146 32 102 -74 127 hhcurveto
          72 64 32 60 50 hvcurveto
          endchar
        </CharString>
        <CharString name="F">
          -49 21 -21 238 144 124 144 10 callsubr
          238 216 144 -216 124 252 144 -424 hlineto
          endchar
        </CharString>
        <CharString name="F.sc">
          -97 21 -21 180 128 84 140 10 callsubr
          180 176 128 -176 84 204 140 -376 hlineto
          endchar
        </CharString>
        <CharString name="F.sups">
          -222 415 99 79 185 callgsubr
          120 155 145 99 -145 79 169 99 -289 hlineto
          endchar
        </CharString>
        <CharString name="G">
          113 callgsubr
          137 callgsubr
          220 152 vstem
          -96 callsubr
          endchar
        </CharString>
        <CharString name="G.sc">
          29 callsubr
          hstem
          44 174 164 150 vstem
          -95 callsubr
          endchar
        </CharString>
        <CharString name="G.sups">
          -147 252 102 63 97 83 103 hstem
          29 123 143 108 vstem
          29 473 rmoveto
          -147 99 -74 122 61 57 27 27 35 vhcurveto
          208 -170 -97 62 -56 vlineto
          -5 -7 -12 -2 -13 hhcurveto
          -76 -35 45 78 76 43 44 57 36 18 -10 -18 21 hvcurveto
          67 76 rlineto
          30 -34 -46 25 -62 hhcurveto
          -121 -102 -82 -145 hvcurveto
          endchar
        </CharString>
        <CharString name="Gbreve">
          113 callgsubr
          38 124 137 callgsubr
          220 152 vstem
          -96 callsubr
          328 380 rmoveto
          -79 callsubr
        </CharString>
        <CharString name="Gbreve.sc">
          29 callsubr
          48 124 hstem
          44 174 164 150 vstem
          -95 callsubr
          280 331 rmoveto
          -79 callsubr
        </CharString>
        <CharString name="Gcaron">
          113 callgsubr
          38 124 137 callgsubr
          220 152 vstem
          -96 callsubr
          378 504 -100 callsubr
        </CharString>
        <CharString name="Gcaron.sc">
          29 callsubr
          48 124 hstem
          44 174 164 150 vstem
          -95 callsubr
          330 455 -100 callsubr
        </CharString>
        <CharString name="Gcircumflex">
          113 callgsubr
          38 124 137 callgsubr
          220 152 vstem
          -96 callsubr
          278 380 -101 callsubr
          endchar
        </CharString>
        <CharString name="Gcircumflex.sc">
          29 callsubr
          48 124 hstem
          44 174 164 150 vstem
          -95 callsubr
          230 331 -101 callsubr
          endchar
        </CharString>
        <CharString name="Gdotaccent">
          113 callgsubr
          34 172 59 callsubr
          56 192 -28 152 hintmask 11101010
          -96 callsubr
          hintmask 11111100
          328 376 -89 callsubr
          endchar
        </CharString>
        <CharString name="Gdotaccent.sc">
          29 callsubr
          44 172 hstemhm
          44 174 10 192 -38 150 hintmask 11101010
          -95 callsubr
          hintmask 11111100
          280 327 -89 callsubr
          endchar
        </CharString>
        <CharString name="H">
          97 21 180 callgsubr
          242 -20 -34 callsubr
          194 172 vstem
          -1 callsubr
          endchar
        </CharString>
        <CharString name="H.sc">
          187 callsubr
          hstem
          72 191 callsubr
          172 vstem
          0 callgsubr
          endchar
        </CharString>
        <CharString name="H.sups">
          -126 430 103 hstem
          47 120 126 120 vstem
          47 133 callgsubr
          170 126 -170 120 432 -120 -159 -126 159 193 callgsubr
        </CharString>
        <CharString name="Hbar">
          137 21 180 callgsubr
          76 77 -77 80 -80 166 hstemhm
          92 172 194 172 hintmask 11001110
          458 408 rmoveto
          -194 76 194 168 callgsubr
          86 -172 vlineto
          hintmask 11010110
          -86 -194 vlineto
          hintmask 11001110
          86 -172 vlineto
          hintmask 11100110
          -86 vlineto
          -70 -6 rlineto
          hintmask 11001110
          -74 70 -484 172 258 194 -258 172 484 70 vlineto
          endchar
        </CharString>
        <CharString name="Hbar.sc">
          87 21 -21 206 128 54 77 -77 80 -80 144 hstemhm
          92 191 callsubr
          172 hintmask 11001110
          408 334 rmoveto
          -144 54 144 168 callgsubr
          64 -172 vlineto
          hintmask 11010110
          -64 -144 vlineto
          hintmask 11001110
          64 -172 vlineto
          hintmask 11100110
          -64 vlineto
          -70 -6 rlineto
          hintmask 11001110
          -74 70 -388 172 206 144 -206 172 388 70 vlineto
          endchar
        </CharString>
        <CharString name="Hcircumflex">
          97 21 180 callgsubr
          242 -20 70 124 -34 callsubr
          194 172 vstem
          -1 callsubr
          218 50 -101 callsubr
          endchar
        </CharString>
        <CharString name="Hcircumflex.sc">
          187 callsubr
          80 124 hstem
          72 191 callsubr
          172 vstem
          0 callgsubr
          194 60 -101 callsubr
          endchar
        </CharString>
        <CharString name="I">
          116 callsubr
          -23 callsubr
          endchar
        </CharString>
        <CharString name="I.a">
          -169 19 callgsubr
          hstem
          158 callsubr
          -66 callsubr
          endchar
        </CharString>
        <CharString name="I.sc">
          116 callgsubr
          hstem
          72 172 vstem
          103 callsubr
          endchar
        </CharString>
        <CharString name="I.sups">
          -372 260 432 75 callgsubr
          120 432 193 callgsubr
        </CharString>
        <CharString name="Iacute">
          116 callsubr
          70 124 -23 callsubr
          260 174 -82 callgsubr
          endchar
        </CharString>
        <CharString name="Iacute.a">
          -169 19 callgsubr
          50 124 hstem
          158 callsubr
          -66 callsubr
          328 680 -82 callgsubr
          endchar
        </CharString>
        <CharString name="Iacute.sc">
          -15 callsubr
          260 184 -82 callgsubr
          endchar
        </CharString>
        <CharString name="Icircumflex">
          116 callsubr
          70 124 -23 callsubr
          36 50 -101 callsubr
          endchar
        </CharString>
        <CharString name="Icircumflex.a">
          -169 19 callgsubr
          50 124 hstem
          158 callsubr
          -66 callsubr
          104 556 -101 callsubr
          endchar
        </CharString>
        <CharString name="Icircumflex.sc">
          -15 callsubr
          36 60 -101 callsubr
          endchar
        </CharString>
        <CharString name="Idieresis">
          116 callsubr
          64 156 hstemhm
          -24 184 callgsubr
          72 hmoveto
          172 119 callgsubr
          hlineto
          -18 44 22 callsubr
        </CharString>
        <CharString name="Idieresis.a">
          -169 19 callgsubr
          44 156 hstemhm
          26 95 callgsubr
          hintmask 11001000
          -66 callsubr
          hintmask 11110100
          50 550 -103 callsubr
        </CharString>
        <CharString name="Idieresis.sc">
          116 callgsubr
          74 156 hstemhm
          -24 184 callgsubr
          103 callsubr
          -18 54 22 callsubr
        </CharString>
        <CharString name="Idotaccent">
          116 callsubr
          66 172 -23 callsubr
          86 46 -89 callsubr
          endchar
        </CharString>
        <CharString name="Idotaccent.a">
          -169 19 callgsubr
          46 172 hstemhm
          112 127 callgsubr
          hintmask 11001000
          -66 callsubr
          hintmask 11110000
          154 552 -89 callsubr
          endchar
        </CharString>
        <CharString name="Idotaccent.sc">
          116 callgsubr
          76 172 hstemhm
          62 127 callgsubr
          hintmask 11101000
          103 callsubr
          hintmask 11110000
          86 56 -89 callsubr
          endchar
        </CharString>
        <CharString name="Igrave">
          116 callsubr
          70 124 -23 callsubr
          34 50 -46 callsubr
        </CharString>
        <CharString name="Igrave.a">
          -169 19 callgsubr
          50 124 hstem
          158 callsubr
          -66 callsubr
          102 556 -46 callsubr
        </CharString>
        <CharString name="Igrave.sc">
          -15 callsubr
          34 60 -46 callsubr
        </CharString>
        <CharString name="Imacron">
          116 callsubr
          86 108 -23 callsubr
          -62 66 -35 callgsubr
        </CharString>
        <CharString name="Imacron.a">
          -169 19 callgsubr
          66 108 hstemhm
          60 296 -54 callsubr
          hintmask 11101000
          -66 callsubr
          hintmask 11110000
          6 572 -35 callgsubr
        </CharString>
        <CharString name="Imacron.sc">
          116 callgsubr
          96 108 hstem
          72 172 vstem
          103 callsubr
          -62 76 -35 callgsubr
        </CharString>
        <CharString name="Iogonek">
          -269 160 callgsubr
          139 -21 650 19 callsubr
          119 callgsubr
          vlineto
          endchar
        </CharString>
        <CharString name="Iogonek.a">
          -169 160 callgsubr
          118 27 callgsubr
          hstemhm
          92 124 -94 172 hintmask 11110000
          54 hmoveto
          111 hlineto
          -25 -18 -48 -49 -63 -33 callgsubr
          28 19 29 32 27 hvcurveto
          hintmask 01101000
          95 144 -68 362 68 144 -308 -144 68 -362 hlineto
          hintmask 01110000
          -68 hlineto
          endchar
        </CharString>
        <CharString name="Iogonek.sc">
          -269 160 callgsubr
          139 -21 532 19 callsubr
          147 callgsubr
          vlineto
          endchar
        </CharString>
        <CharString name="Itilde">
          116 callsubr
          70 146 -23 callsubr
          150 50 rmoveto
          128 callgsubr
          -86 hlineto
          -99 callsubr
          endchar
        </CharString>
        <CharString name="Itilde.a">
          -169 19 callgsubr
          50 146 hstem
          158 callsubr
          -66 callsubr
          218 556 rmoveto
          128 callgsubr
          -86 hlineto
          -99 callsubr
          endchar
        </CharString>
        <CharString name="Itilde.sc">
          116 callgsubr
          80 146 hstem
          72 172 vstem
          103 callsubr
          150 60 rmoveto
          128 callgsubr
          -86 hlineto
          -99 callsubr
          endchar
        </CharString>
        <CharString name="J">
          -65 6 callgsubr
          35 callsubr
          endchar
        </CharString>
        <CharString name="J.sc">
          -103 -12 142 402 -20 39 callgsubr
          endchar
        </CharString>
        <CharString name="J.sups">
          -232 252 102 hstem
          188 120 vstem
          6 336 rmoveto
          -57 33 46 -27 70 hhcurveto
          106 47 74 87 hvcurveto
          279 -120 -269 vlineto
          -56 -16 -13 -30 -20 -21 13 29 -14 vhcurveto
          endchar
        </CharString>
        <CharString name="Jcircumflex">
          -65 24 callgsubr
          35 callsubr
          188 502 -101 callsubr
          endchar
        </CharString>
        <CharString name="Jcircumflex.sc">
          -103 -12 142 402 -20 80 124 39 callgsubr
          148 412 -101 callsubr
          endchar
        </CharString>
        <CharString name="K">
          43 37 callsubr
          hstem
          72 172 -11 callsubr
          endchar
        </CharString>
        <CharString name="K.sc">
          -15 44 callgsubr
          hstem
          72 172 vstem
          -10 callsubr
          endchar
        </CharString>
        <CharString name="K.sups">
          -160 260 432 75 callgsubr
          120 110 hlineto
          41 56 94 -166 rlineto
          131 hlineto
          -156 258 130 174 rlineto
          -131 hlineto
          -106 -156 rlineto
          -3 156 193 callgsubr
        </CharString>
        <CharString name="L">
          -55 0 144 506 -20 hstem
          72 172 vstem
          31 callsubr
          endchar
        </CharString>
        <CharString name="L.sc">
          176 callsubr
          hstem
          72 172 vstem
          22 callgsubr
          endchar
        </CharString>
        <CharString name="L.sups">
          -226 260 185 callgsubr
          285 99 -165 333 193 callgsubr
        </CharString>
        <CharString name="Lacute">
          -55 0 144 506 -20 70 124 hstem
          72 172 vstem
          31 callsubr
          264 174 -82 callgsubr
          endchar
        </CharString>
        <CharString name="Lacute.sc">
          176 callsubr
          80 124 hstem
          72 172 vstem
          22 callgsubr
          264 184 -82 callgsubr
          endchar
        </CharString>
        <CharString name="Lcaron">
          -55 0 144 364 142 -142 226 -22 callsubr
          113 104 hintmask 11011000
          31 callsubr
          360 -142 48 callsubr
        </CharString>
        <CharString name="Lcaron.sc">
          -101 0 140 268 124 -124 226 -22 callsubr
          95 104 hintmask 11011000
          22 callgsubr
          342 -124 48 callsubr
        </CharString>
        <CharString name="Ldot">
          -55 0 144 82 208 216 -20 -34 callsubr
          79 200 vstem
          31 callsubr
          251 -320 rmoveto
          -67 callsubr
          endchar
        </CharString>
        <CharString name="Ldot.sc">
          -101 0 140 86 208 98 -20 -34 callsubr
          52 200 vstem
          22 callgsubr
          224 -202 rmoveto
          -67 callsubr
          endchar
        </CharString>
        <CharString name="Lslash">
          -47 0 144 506 -20 hstem
          80 172 vstem
          252 144 rmoveto
          134 vlineto
          168 94 rlineto
          132 vlineto
          -168 -94 rlineto
          240 -172 -320 vlineto
          -70 -42 rlineto
          -132 vlineto
          70 42 rlineto
          -198 418 144 vlineto
          endchar
        </CharString>
        <CharString name="Lslash.sc">
          176 callsubr
          hstem
          80 172 vstem
          252 140 rmoveto
          77 vlineto
          138 77 rlineto
          126 vlineto
          -138 -77 rlineto
          189 -172 -268 vlineto
          -70 -42 rlineto
          -126 vlineto
          70 42 rlineto
          -138 182 callgsubr
          vlineto
          endchar
        </CharString>
        <CharString name="M">
          191 21 -21 424 226 0 -20 hstemhm
          72 158 314 160 hintmask 10111000
          72 hmoveto
          158 192 hlineto
          hintmask 11011000
          15 callgsubr
          endchar
        </CharString>
        <CharString name="M.sc">
          115 21 -21 318 214 0 -20 hstemhm
          72 154 248 154 hintmask 10111000
          72 hmoveto
          154 106 hlineto
          hintmask 11011000
          17 callsubr
          endchar
        </CharString>
        <CharString name="M.sups">
          -60 260 432 -156 156 hstemhm
          47 110 210 112 hintmask 10110000
          183 callsubr
          110 122 hlineto
          45 -10 69 -5 40 vhcurveto
          2 hlineto
          37 -100 59 -140 rlineto
          43 hlineto
          hintmask 01110000
          59 140 38 100 rlineto
          3 hlineto
          -6 -40 -10 -69 -45 vvcurveto
          -122 112 432 -125 vlineto
          -64 -175 -23 -69 rlineto
          -3 hlineto
          -24 69 -70 175 rlineto
          -123 hlineto
          endchar
        </CharString>
        <CharString name="N">
          87 37 callsubr
          hstem
          72 164 200 164 vstem
          -87 callgsubr
          endchar
        </CharString>
        <CharString name="N.sc">
          29 44 callgsubr
          hstem
          72 158 154 158 vstem
          -85 callsubr
          endchar
        </CharString>
        <CharString name="N.sups">
          -133 260 147 -147 432 -147 147 hstemhm
          47 112 135 112 hintmask 01011000
          183 callsubr
          112 120 hlineto
          hintmask 10111000
          52 -7 63 -6 50 vhcurveto
          3 hlineto
          41 -96 91 -189 rlineto
          125 432 -112 -117 hlineto
          -54 7 -66 6 -48 vhcurveto
          -3 hlineto
          -41 99 -91 186 rlineto
          -125 hlineto
          endchar
        </CharString>
        <CharString name="Nacute">
          87 37 callsubr
          70 124 hstem
          72 164 200 164 vstem
          -87 callgsubr
          438 174 -82 callgsubr
          endchar
        </CharString>
        <CharString name="Nacute.sc">
          29 44 callgsubr
          80 124 hstem
          72 158 154 158 vstem
          -85 callsubr
          418 184 -82 callgsubr
          endchar
        </CharString>
        <CharString name="Ncaron">
          87 37 callsubr
          70 124 hstem
          72 164 200 164 vstem
          -87 callgsubr
          314 174 -100 callsubr
        </CharString>
        <CharString name="Ncaron.sc">
          29 44 callgsubr
          80 124 hstem
          72 158 154 158 vstem
          -85 callsubr
          294 184 -100 callsubr
        </CharString>
        <CharString name="Ntilde">
          87 37 callsubr
          70 146 hstem
          72 164 200 164 vstem
          -87 callgsubr
          328 50 rmoveto
          128 callgsubr
          -86 hlineto
          -99 callsubr
          endchar
        </CharString>
        <CharString name="Ntilde.sc">
          29 44 callgsubr
          80 146 hstem
          72 158 154 158 vstem
          -85 callsubr
          308 60 rmoveto
          128 callgsubr
          -86 hlineto
          -99 callsubr
          endchar
        </CharString>
        <CharString name="O">
          -44 callsubr
          137 callgsubr
          252 176 vstem
          -107 callsubr
          endchar
        </CharString>
        <CharString name="O.sc">
          41 -42 callgsubr
          hstem
          65 callgsubr
          vstem
          -105 callgsubr
          endchar
        </CharString>
        <CharString name="O.sups">
          -117 252 102 243 103 hstem
          29 123 164 123 vstem
          234 252 rmoveto
          121 84 85 141 141 -84 81 -121 -123 -82 -80 -142 -141 82 -85 123 hvcurveto
          102 vmoveto
          -52 -30 49 75 76 30 43 52 50 32 -43 -76 -75 -32 -49 -50 hvcurveto
          endchar
        </CharString>
        <CharString name="OE">
          295 0 138 -138 -39 callsubr
          -138 138 59 callsubr
          188 172 hintmask 01110110
          44 328 rmoveto
          -230 150 -98 180 vhcurveto
          452 144 -246 116 200 144 -200 102 236 144 -432 hlineto
          -190 -150 -92 -230 hvcurveto
          hintmask 10101110
          176 hmoveto
          154 77 30 97 vhcurveto
          14 -374 -14 hlineto
          -97 -77 36 154 hvcurveto
          endchar
        </CharString>
        <CharString name="OE.sc">
          193 0 132 74 124 70 132 137 callgsubr
          183 callgsubr
          vstem
          44 263 rmoveto
          -199 132 -64 168 vhcurveto
          380 132 -206 74 168 124 -168 70 196 132 -381 hlineto
          -157 -132 -69 -200 hvcurveto
          302 136 rmoveto
          -266 -13 vlineto
          -68 -45 28 102 101 45 35 68 hvcurveto
          endchar
        </CharString>
        <CharString name="Oacute">
          -44 callsubr
          38 124 137 callgsubr
          252 176 vstem
          -107 callsubr
          174 688 -82 callgsubr
          endchar
        </CharString>
        <CharString name="Oacute.sc">
          41 131 callsubr
          hstem
          65 callgsubr
          vstem
          -105 callgsubr
          174 588 -82 callgsubr
          endchar
        </CharString>
        <CharString name="Ocircumflex">
          -44 callsubr
          38 124 137 callgsubr
          252 176 vstem
          -107 callsubr
          -50 564 -101 callsubr
          endchar
        </CharString>
        <CharString name="Ocircumflex.sc">
          41 131 callsubr
          hstem
          65 callgsubr
          vstem
          -105 callgsubr
          -50 464 -101 callsubr
          endchar
        </CharString>
        <CharString name="Odieresis">
          -44 callsubr
          32 156 59 callsubr
          -56 37 callgsubr
          -56 176 hintmask 11110010
          -107 callsubr
          hintmask 11101100
          -104 558 -103 callsubr
        </CharString>
        <CharString name="Odieresis.sc">
          41 -42 callgsubr
          42 156 59 callsubr
          -88 37 callgsubr
          -90 176 hintmask 11110010
          -105 callgsubr
          hintmask 11101100
          -104 458 -103 callsubr
        </CharString>
        <CharString name="Ograve">
          -44 callsubr
          38 124 137 callgsubr
          252 176 vstem
          -107 callsubr
          -52 564 -46 callsubr
        </CharString>
        <CharString name="Ograve.sc">
          41 131 callsubr
          hstem
          65 callgsubr
          vstem
          -105 callgsubr
          -52 464 -46 callsubr
        </CharString>
        <CharString name="Ohorn">
          -44 callsubr
          58 callgsubr
          -108 132 hintmask 11110000
          346 136 rmoveto
          -78 -48 74 118 118 48 68 78 78 48 -68 -118 -118 -48 -74 -78 hvcurveto
          hintmask 11101000
          -66 callgsubr
          hintmask 11110000
          16 callgsubr
          hintmask 11101000
          66 18 43 39 69 -71 callsubr
        </CharString>
        <CharString name="Ohorn.sc">
          41 -42 callgsubr
          57 callsubr
          -84 132 hintmask 11110000
          314 128 rmoveto
          -60 -34 54 87 87 34 48 60 58 34 -48 -87 -87 -34 -54 -58 hvcurveto
          hintmask 11101000
          -62 callgsubr
          hintmask 11110000
          20 callsubr
          hintmask 11101000
          59 19 42 39 67 -71 callsubr
        </CharString>
        <CharString name="Ohungarumlaut">
          -44 callsubr
          38 124 137 callgsubr
          252 176 vstem
          -107 callsubr
          -34 564 -23 callgsubr
        </CharString>
        <CharString name="Ohungarumlaut.sc">
          41 131 callsubr
          hstem
          65 callgsubr
          vstem
          -105 callgsubr
          -34 464 -23 callgsubr
        </CharString>
        <CharString name="Omacron">
          -44 callsubr
          54 108 59 callsubr
          -22 296 -22 144 callsubr
          -107 callsubr
          hintmask 11101000
          -148 580 -35 callgsubr
        </CharString>
        <CharString name="Omacron.sc">
          41 -42 callgsubr
          64 108 59 callsubr
          -54 296 -56 144 callsubr
          -105 callgsubr
          hintmask 11101000
          -148 480 -35 callgsubr
        </CharString>
        <CharString name="Oslash">
          -44 callsubr
          137 callgsubr
          252 176 vstem
          469 375 rmoveto
          2 -14 1 -16 -17 vvcurveto
          -118 -48 -74 -78 -22 -20 6 11 -17 vhcurveto
          -60 102 rmoveto
          -5 22 -2 24 27 vvcurveto
          118 48 68 78 28 24 -9 -17 20 vhcurveto
          258 140 rmoveto
          -88 68 -68 -83 rlineto
          32 -48 -59 17 -67 hhcurveto
          -180 -122 -120 -214 -91 22 -75 39 -56 hvcurveto
          -69 -84 88 -68 62 76 rlineto
          -28 45 54 -14 61 hhcurveto
          180 122 126 214 82 -18 69 -33 53 hvcurveto
          endchar
        </CharString>
        <CharString name="Oslash.sc">
          41 -12 130 296 130 hstem
          44 166 206 166 vstem
          412 319 rmoveto
          3 -15 1 -17 -18 vvcurveto
          -93 -38 -58 -64 -24 -20 7 14 -16 vhcurveto
          -39 75 rmoveto
          -3 16 -2 19 20 vvcurveto
          93 38 52 66 23 20 -7 -13 16 vhcurveto
          205 116 rmoveto
          -62 48 -47 -54 rlineto
          26 -43 -52 14 -60 hhcurveto
          -161 -109 -97 -178 -77 20 -63 37 -47 hvcurveto
          -53 -60 62 -48 48 56 rlineto
          -28 43 53 -14 60 hhcurveto
          159 109 103 178 76 -20 61 -35 45 hvcurveto
          endchar
        </CharString>
        <CharString name="Otilde">
          -44 callsubr
          38 146 137 callgsubr
          252 176 vstem
          -107 callsubr
          64 564 rmoveto
          128 callgsubr
          -86 hlineto
          -99 callsubr
          endchar
        </CharString>
        <CharString name="Otilde.sc">
          41 156 callgsubr
          146 hstem
          65 callgsubr
          vstem
          -105 callgsubr
          64 464 rmoveto
          128 callgsubr
          -86 hlineto
          -99 callsubr
          endchar
        </CharString>
        <CharString name="P">
          33 21 -21 206 136 172 136 -34 callsubr
          172 168 vstem
          72 hmoveto
          172 206 130 callsubr
          -252 hlineto
          172 -308 136 callgsubr
        </CharString>
        <CharString name="P.sc">
          -21 21 -21 156 116 126 134 hstem
          72 108 callgsubr
          162 vstem
          72 hmoveto
          172 156 57 hlineto
          116 113 55 137 141 -109 43 -120 hvcurveto
          -229 hlineto
          172 -260 rmoveto
          126 52 vlineto
          48 24 -20 -40 -38 -26 -28 -46 hvcurveto
          endchar
        </CharString>
        <CharString name="P.sups">
          -168 395 93 110 94 hstem
          47 120 112 117 vstem
          47 133 callgsubr
          135 54 hlineto
          90 85 47 107 108 -82 35 -93 hvcurveto
          -174 hlineto
          120 -204 rmoveto
          110 46 vlineto
          43 23 -14 -35 -37 -21 -24 -45 hvcurveto
          endchar
        </CharString>
        <CharString name="Q">
          107 -184 136 562 148 137 callgsubr
          252 176 vstem
          346 514 rmoveto
          78 48 -68 -118 -128 -48 -72 -78 -78 -48 72 128 118 48 68 78 hvcurveto
          314 -550 rmoveto
          -7 -20 -26 -5 -28 hhcurveto
          -49 -58 11 41 -30 hvcurveto
          122 40 77 114 170 vvcurveto
          -36 callgsubr
          -180 -122 -120 -214 -181 88 -119 136 -31 vhcurveto
          -107 50 102 -74 146 hhcurveto
          55 43 10 14 26 hvcurveto
          endchar
        </CharString>
        <CharString name="Q.sc">
          39 -177 132 449 140 hstem
          42 176 186 176 vstem
          312 404 rmoveto
          58 34 -48 -87 -97 -34 -54 -58 -60 -34 54 97 87 34 48 60 hvcurveto
          269 -439 rmoveto
          -6 -19 -22 -4 -24 hhcurveto
          -46 -43 5 41 -24 hvcurveto
          108 33 69 94 141 vvcurveto
          149 callsubr
          -145 72 -95 114 -31 vhcurveto
          -104 45 80 -71 143 hhcurveto
          51 39 9 13 24 hvcurveto
          endchar
        </CharString>
        <CharString name="Q.sups">
          -117 138 94 365 103 hstem
          26 123 165 123 vstem
          231 597 rmoveto
          51 32 -43 -77 -79 -32 -48 -51 -52 -30 48 79 77 30 43 52 hvcurveto
          215 -357 rmoveto
          -5 -14 -17 -3 -20 hhcurveto
          -32 -39 5 26 -20 hvcurveto
          81 28 52 75 111 vvcurveto
          142 -84 81 -122 -123 -82 -80 -143 -120 59 -78 93 -21 vhcurveto
          -72 33 70 -48 100 hhcurveto
          39 29 7 10 18 hvcurveto
          endchar
        </CharString>
        <CharString name="R">
          174 callsubr
          -34 callsubr
          166 168 vstem
          244 514 -31 callsubr
        </CharString>
        <CharString name="R.sc">
          -9 21 75 callsubr
          -34 callsubr
          120 162 vstem
          244 398 -28 callsubr
        </CharString>
        <CharString name="R.sups">
          -159 403 93 102 94 hstem
          47 120 108 117 vstem
          167 598 rmoveto
          41 hlineto
          44 23 -14 -35 -33 -23 -20 -44 hvcurveto
          -41 hlineto
          250 -236 rmoveto
          -95 169 rlineto
          42 24 28 41 59 vvcurveto
          107 -82 32 -94 vhcurveto
          -169 -432 120 143 43 hlineto
          73 -143 rlineto
          endchar
        </CharString>
        <CharString name="Racute">
          92 callsubr
          490 56 callgsubr
          -124 -186 -31 callsubr
        </CharString>
        <CharString name="Racute.sc">
          -9 21 75 callsubr
          60 124 -34 callsubr
          120 162 vstem
          480 716 -82 callgsubr
          -114 -194 -28 callsubr
        </CharString>
        <CharString name="Rcaron">
          92 callsubr
          400 700 9 callgsubr
          12 -186 -31 callsubr
        </CharString>
        <CharString name="Rcaron.sc">
          -9 21 75 callsubr
          60 124 -34 callsubr
          120 162 vstem
          390 592 9 callgsubr
          22 -194 -28 callsubr
        </CharString>
        <CharString name="S">
          -21 -21 callsubr
          hstem
          56 174 126 176 vstem
          -96 callgsubr
          endchar
        </CharString>
        <CharString name="S.sc">
          -70 -12 90 callsubr
          hstem
          61 171 79 172 vstem
          32 62 -101 callgsubr
          endchar
        </CharString>
        <CharString name="S.sups">
          -204 252 103 246 100 hstem
          37 121 80 122 vstem
          21 315 rmoveto
          -44 48 63 -19 57 hhcurveto
          110 61 66 80 54 -22 30 -62 26 hvcurveto
          -54 23 rlineto
          -38 16 -26 7 20 vvcurveto
          16 12 11 28 34 27 -13 -20 30 vhcurveto
          60 74 rlineto
          39 -41 -56 20 -49 hhcurveto
          -99 -67 -62 -74 -61 35 -34 54 -23 hvcurveto
          54 -23 rlineto
          36 -15 22 -7 -18 vvcurveto
          -15 -7 -14 -34 -34 -43 16 25 -31 vhcurveto
          endchar
        </CharString>
        <CharString name="Sacute">
          -21 -21 callsubr
          38 124 hstem
          56 174 126 176 vstem
          -96 callgsubr
          340 625 -82 callgsubr
          endchar
        </CharString>
        <CharString name="Sacute.sc">
          -70 -12 90 callsubr
          47 124 hstem
          61 171 79 172 vstem
          32 62 -101 callgsubr
          339 540 -82 callgsubr
          endchar
        </CharString>
        <CharString name="Scaron">
          -21 -21 callsubr
          38 124 hstem
          56 174 126 176 vstem
          -96 callgsubr
          216 625 -100 callsubr
        </CharString>
        <CharString name="Scaron.sc">
          -70 -12 90 callsubr
          47 124 hstem
          61 171 79 172 vstem
          32 62 -101 callgsubr
          215 540 -100 callsubr
        </CharString>
        <CharString name="Scircumflex">
          -21 -21 callsubr
          38 124 hstem
          56 174 126 176 vstem
          -96 callgsubr
          116 501 -101 callsubr
          endchar
        </CharString>
        <CharString name="Scircumflex.sc">
          -70 -12 90 callsubr
          47 124 hstem
          61 171 79 172 vstem
          32 62 -101 callgsubr
          115 416 -101 callsubr
          endchar
        </CharString>
        <CharString name="T">
          -21 21 -21 506 144 hstem
          196 172 vstem
          10 callgsubr
          endchar
        </CharString>
        <CharString name="T.sc">
          -85 21 159 callgsubr
          hstem
          160 callsubr
          vstem
          9 callsubr
          endchar
        </CharString>
        <CharString name="T.sups">
          -202 593 99 hstem
          133 120 vstem
          133 133 callgsubr
          333 115 99 -352 -99 117 hlineto
          endchar
        </CharString>
        <CharString name="Tcaron">
          -21 21 -21 506 144 50 124 hstem
          196 172 vstem
          10 callgsubr
          136 318 -100 callsubr
        </CharString>
        <CharString name="Tcaron.sc">
          -85 21 159 callgsubr
          60 124 hstem
          160 callsubr
          vstem
          9 callsubr
          136 324 -100 callsubr
        </CharString>
        <CharString name="Thorn">
          45 21 -21 112 136 172 136 94 -20 -34 callsubr
          172 168 vstem
          72 hmoveto
          172 112 130 callsubr
          -80 94 -32 callsubr
          172 -402 136 callgsubr
        </CharString>
        <CharString name="Thorn.sc">
          -9 21 -21 84 123 125 123 77 -20 -34 callsubr
          120 166 vstem
          72 hmoveto
          172 84 57 hlineto
          115 114 54 137 141 -110 39 -119 hvcurveto
          -57 77 -32 callsubr
          172 -325 rmoveto
          125 51 vlineto
          43 26 -14 -43 -43 -22 -25 -47 hvcurveto
          endchar
        </CharString>
        <CharString name="U">
          51 callsubr
          hstem
          25 callgsubr
          vstem
          -102 callsubr
          endchar
        </CharString>
        <CharString name="U.sc">
          51 callgsubr
          hstem
          24 callsubr
          vstem
          -100 callgsubr
          endchar
        </CharString>
        <CharString name="U.sups">
          -131 252 102 hstem
          45 120 129 116 vstem
          45 472 rmoveto
          -150 53 -70 132 124 56 70 150 vhcurveto
          220 -116 -235 vlineto
          -76 -20 -27 -44 -47 -18 27 76 vhcurveto
          235 -120 vlineto
          endchar
        </CharString>
        <CharString name="Uacute">
          87 24 callgsubr
          hstem
          25 callgsubr
          vstem
          -102 callsubr
          442 174 -82 callgsubr
          endchar
        </CharString>
        <CharString name="Uacute.sc">
          31 30 callsubr
          hstem
          24 callsubr
          vstem
          -100 callgsubr
          414 184 -82 callgsubr
          endchar
        </CharString>
        <CharString name="Ubreve">
          87 24 callgsubr
          hstem
          25 callgsubr
          vstem
          -102 callsubr
          268 50 rmoveto
          -79 callsubr
        </CharString>
        <CharString name="Ubreve.sc">
          31 30 callsubr
          hstem
          24 callsubr
          vstem
          -100 callgsubr
          240 60 rmoveto
          -79 callsubr
        </CharString>
        <CharString name="Ucircumflex">
          87 24 callgsubr
          hstem
          25 callgsubr
          vstem
          -102 callsubr
          218 50 -101 callsubr
          endchar
        </CharString>
        <CharString name="Ucircumflex.sc">
          31 30 callsubr
          hstem
          24 callsubr
          vstem
          -100 callgsubr
          190 60 -101 callsubr
          endchar
        </CharString>
        <CharString name="Udieresis">
          51 callsubr
          64 156 hstemhm
          68 172 -86 37 callgsubr
          -80 166 hintmask 11110010
          -102 callsubr
          164 44 rmoveto
          hintmask 11101010
          140 callgsubr
          hintmask 11110010
          71 callsubr
          hintmask 11110010
          -44 32 -34 46 vhcurveto
          endchar
        </CharString>
        <CharString name="Udieresis.sc">
          51 callgsubr
          74 156 hstemhm
          68 170 -112 37 callgsubr
          -106 164 hintmask 11110010
          -100 callgsubr
          hintmask 11101010
          136 54 rmoveto
          46 32 34 44 44 -32 34 -46 71 callsubr
          hintmask 11101010
          -44 32 -34 46 vhcurveto
          endchar
        </CharString>
        <CharString name="Ugrave">
          87 24 callgsubr
          hstem
          25 callgsubr
          vstem
          -102 callsubr
          216 50 -46 callsubr
        </CharString>
        <CharString name="Ugrave.sc">
          31 30 callsubr
          hstem
          24 callsubr
          vstem
          -100 callgsubr
          188 60 -46 callsubr
        </CharString>
        <CharString name="Uhorn">
          107 6 callgsubr
          hstemhm
          25 callgsubr
          -2 132 hintmask 11101000
          586 758 -60 callgsubr
          -54 -46 -6 -34 vhcurveto
          hintmask 11110000
          -63 callsubr
          hintmask 11101000
          74 14 56 41 78 -71 callsubr
        </CharString>
        <CharString name="Uhorn.sc">
          51 13 callgsubr
          hstemhm
          24 callsubr
          -2 132 hintmask 11101000
          530 640 -60 callgsubr
          -54 -46 -6 -34 vhcurveto
          hintmask 11110000
          -59 callgsubr
          hintmask 11101000
          74 14 56 41 78 -71 callsubr
        </CharString>
        <CharString name="Uhungarumlaut">
          87 24 callgsubr
          hstem
          25 callgsubr
          vstem
          -102 callsubr
          234 50 -23 callgsubr
        </CharString>
        <CharString name="Uhungarumlaut.sc">
          31 30 callsubr
          hstem
          24 callsubr
          vstem
          -100 callgsubr
          206 60 -23 callgsubr
        </CharString>
        <CharString name="Umacron">
          51 callsubr
          86 108 hstem
          25 callgsubr
          vstem
          -102 callsubr
          120 66 -35 callgsubr
        </CharString>
        <CharString name="Umacron.sc">
          51 callgsubr
          96 108 hstem
          24 callsubr
          vstem
          -100 callgsubr
          92 76 -35 callgsubr
        </CharString>
        <CharString name="Uogonek">
          87 160 callgsubr
          108 146 -125 -21 660 -20 hstemhm
          68 172 -2 124 76 166 hintmask 10111010
          68 314 rmoveto
          -206 76 -106 158 -12 vhcurveto
          hintmask 10110110
          -14 -12 -50 -44 -64 -33 callgsubr
          26 19 32 49 22 hvcurveto
          127 57 47 73 188 vvcurveto
          336 -166 -356 vlineto
          hintmask 11011010
          -116 -32 -42 -68 -68 -30 42 116 vhcurveto
          356 -172 vlineto
          endchar
        </CharString>
        <CharString name="Uogonek.sc">
          31 160 callgsubr
          129 -21 542 -20 hstemhm
          68 170 -28 124 50 164 hintmask 11110100
          548 532 rmoveto
          119 callsubr
          hlineto
          -84 -17 -32 -55 -54 -20 32 84 vhcurveto
          288 -170 -276 vlineto
          -174 69 -80 137 -12 vhcurveto
          hintmask 11101100
          -14 -12 -50 -44 -64 -33 callgsubr
          26 19 32 49 22 hvcurveto
          106 45 40 63 152 vvcurveto
          endchar
        </CharString>
        <CharString name="Uring">
          51 callsubr
          66 62 80 62 hstemhm
          68 172 -24 82 76 82 -18 166 hintmask 11111001
          -102 callsubr
          hintmask 11110110
          268 46 rmoveto
          -2 callgsubr
        </CharString>
        <CharString name="Uring.sc">
          51 callgsubr
          76 62 80 62 hstemhm
          68 170 -50 82 76 82 -44 164 hintmask 11111001
          -100 callgsubr
          hintmask 11110110
          240 56 rmoveto
          -2 callgsubr
        </CharString>
        <CharString name="Utilde">
          51 callsubr
          70 146 hstem
          25 callgsubr
          vstem
          -102 callsubr
          332 50 rmoveto
          128 callgsubr
          -86 hlineto
          -99 callsubr
          endchar
        </CharString>
        <CharString name="Utilde.sc">
          51 callgsubr
          80 146 hstem
          24 callsubr
          vstem
          -100 callgsubr
          304 60 rmoveto
          128 callgsubr
          -86 hlineto
          -99 callsubr
          endchar
        </CharString>
        <CharString name="V">
          -13 0 160 -139 120 callgsubr
          hstemhm
          -10 592 hintmask 01110000
          182 hmoveto
          208 hlineto
          192 650 192 callsubr
          -66 -284 rlineto
          hintmask 10110000
          -17 -69 -13 -67 -18 -70 rrcurveto
          -4 hlineto
          -18 70 -12 67 -18 69 -68 284 rcurveline
          -182 hlineto
          endchar
        </CharString>
        <CharString name="V.sc">
          -77 0 150 -129 136 callsubr
          hstemhm
          -10 528 hintmask 01110000
          150 hmoveto
          206 hlineto
          162 532 133 callsubr
          -48 -215 rlineto
          hintmask 10110000
          -12 -55 -11 -55 -15 -57 rrcurveto
          -4 hlineto
          -14 58 -11 54 -13 55 -50 215 rcurveline
          -178 hlineto
          endchar
        </CharString>
        <CharString name="V.sups">
          -195 260 110 hstem
          -7 404 vstem
          123 260 rmoveto
          145 hlineto
          129 432 rlineto
          -122 hlineto
          -44 -185 -11 -45 -9 -44 -12 -48 rlinecurve
          -2 hlineto
          -12 48 -9 44 -11 45 -45 185 rcurveline
          -127 hlineto
          endchar
        </CharString>
        <CharString name="W">
          96 callgsubr
          hstem
          10 804 -90 callsubr
          endchar
        </CharString>
        <CharString name="W.sc">
          145 0 151 hstem
          10 710 -88 callsubr
          endchar
        </CharString>
        <CharString name="W.sups">
          -27 260 111 155 166 hstem
          6 546 vstem
          83 260 rmoveto
          150 hlineto
          29 167 6 32 5 36 5 31 rlinecurve
          2 hlineto
          4 -31 6 -36 6 -32 33 -167 rcurveline
          152 hlineto
          71 432 rlineto
          -114 hlineto
          -23 -185 -5 -43 -4 -46 -5 -47 rlinecurve
          -2 hlineto
          -8 47 -8 47 -8 42 -42 185 rcurveline
          -100 hlineto
          -40 -185 -9 -44 -6 -45 -8 -47 rlinecurve
          -3 hlineto
          -6 47 -5 44 -5 45 -22 185 rcurveline
          -123 hlineto
          endchar
        </CharString>
        <CharString name="Wacute">
          96 callgsubr
          70 124 hstem
          10 804 -90 callsubr
          576 174 -82 callgsubr
          endchar
        </CharString>
        <CharString name="Wacute.sc">
          145 0 151 441 124 hstem
          10 710 -88 callsubr
          530 185 -82 callgsubr
          endchar
        </CharString>
        <CharString name="Wcircumflex">
          96 callgsubr
          70 124 hstem
          10 804 -90 callsubr
          352 50 -101 callsubr
          endchar
        </CharString>
        <CharString name="Wcircumflex.sc">
          145 0 151 441 124 hstem
          10 710 -88 callsubr
          306 61 -101 callsubr
          endchar
        </CharString>
        <CharString name="Wdieresis">
          96 callgsubr
          64 156 hstem
          230 156 52 156 -90 callsubr
          298 44 -103 callsubr
        </CharString>
        <CharString name="Wdieresis.sc">
          145 0 151 435 156 hstem
          184 156 52 156 -88 callsubr
          252 55 -103 callsubr
        </CharString>
        <CharString name="Wgrave">
          96 callgsubr
          70 124 hstem
          10 804 -90 callsubr
          350 50 -46 callsubr
        </CharString>
        <CharString name="Wgrave.sc">
          145 0 151 441 124 hstem
          10 710 -88 callsubr
          304 61 -46 callsubr
        </CharString>
        <CharString name="X">
          3 37 callsubr
          hstem
          10 568 vstem
          10 hmoveto
          184 hlineto
          48 116 14 34 14 34 14 40 rlinecurve
          4 hlineto
          16 -40 14 -34 16 -34 52 -116 rcurveline
          192 hlineto
          -176 326 166 324 rlineto
          -184 hlineto
          -38 -106 -12 -30 -14 -36 -14 -42 rlinecurve
          -4 hlineto
          -18 42 -14 36 -14 30 -44 106 rcurveline
          -192 hlineto
          166 -316 rlineto
          endchar
        </CharString>
        <CharString name="X.sc">
          -55 44 callgsubr
          hstem
          10 510 vstem
          10 hmoveto
          182 hlineto
          30 76 11 29 11 29 11 33 rlinecurve
          4 hlineto
          12 -33 13 -29 13 -29 34 -76 rcurveline
          189 hlineto
          -149 266 141 266 rlineto
          -182 hlineto
          -21 -68 -8 -25 -13 -31 -12 -36 rlinecurve
          -4 hlineto
          -14 36 -14 31 -10 25 -27 68 rcurveline
          -189 hlineto
          140 -259 rlineto
          endchar
        </CharString>
        <CharString name="X.sups">
          -184 260 432 hstem
          7 387 vstem
          7 260 rmoveto
          128 hlineto
          30 75 9 23 11 22 10 27 rlinecurve
          2 hlineto
          11 -27 10 -22 10 -23 32 -75 rcurveline
          134 hlineto
          -117 217 111 215 rlineto
          -129 hlineto
          -23 -66 -7 -20 -9 -24 -10 -30 rlinecurve
          -3 hlineto
          -12 30 -12 24 -8 20 -27 66 rcurveline
          -134 hlineto
          112 -210 rlineto
          endchar
        </CharString>
        <CharString name="Y">
          -41 37 callsubr
          hstem
          186 172 vstem
          -89 callgsubr
          endchar
        </CharString>
        <CharString name="Y.sc">
          -98 44 callgsubr
          hstem
          158 172 vstem
          -86 callgsubr
          endchar
        </CharString>
        <CharString name="Y.sups">
          -215 260 432 hstem
          126 120 vstem
          126 133 callgsubr
          148 hlineto
          131 284 rlineto
          -125 hlineto
          -30 -86 -12 -33 -11 -31 -11 -34 rlinecurve
          -2 hlineto
          -12 34 -10 31 -13 33 -30 86 rcurveline
          -128 hlineto
          133 -284 rlineto
          endchar
        </CharString>
        <CharString name="Yacute">
          -41 37 callsubr
          70 124 hstem
          186 172 vstem
          -89 callgsubr
          260 600 -82 callgsubr
          endchar
        </CharString>
        <CharString name="Yacute.sc">
          -98 44 callgsubr
          80 124 hstem
          158 172 vstem
          -86 callgsubr
          256 541 -82 callgsubr
          endchar
        </CharString>
        <CharString name="Ycircumflex">
          -41 37 callsubr
          70 124 hstem
          186 172 vstem
          -89 callgsubr
          36 476 -101 callsubr
          endchar
        </CharString>
        <CharString name="Ycircumflex.sc">
          -98 44 callgsubr
          80 124 hstem
          158 172 vstem
          -86 callgsubr
          32 417 -101 callsubr
          endchar
        </CharString>
        <CharString name="Ydieresis">
          -41 37 callsubr
          64 156 hstemhm
          90 184 callgsubr
          -89 callgsubr
          hintmask 11110100
          -18 470 -103 callsubr
        </CharString>
        <CharString name="Ydieresis.sc">
          -98 44 callgsubr
          74 156 hstemhm
          58 156 -56 172 -64 156 hintmask 11101000
          -86 callgsubr
          hintmask 11110100
          -22 411 -103 callsubr
        </CharString>
        <CharString name="Ygrave">
          -41 37 callsubr
          70 124 hstem
          186 172 vstem
          -89 callgsubr
          34 476 -46 callsubr
        </CharString>
        <CharString name="Ygrave.sc">
          -98 44 callgsubr
          80 124 hstem
          158 172 vstem
          -86 callgsubr
          30 417 -46 callsubr
        </CharString>
        <CharString name="Z">
          -43 19 callgsubr
          hstem
          32 480 -29 callgsubr
          endchar
        </CharString>
        <CharString name="Z.sc">
          125 callgsubr
          hstem
          32 421 -29 callsubr
          endchar
        </CharString>
        <CharString name="Z.sups">
          -219 260 99 234 99 hstemhm
          21 325 -308 307 hintmask 11100000
          21 260 rmoveto
          325 99 -177 hlineto
          hintmask 11010000
          176 261 rlineto
          72 -307 -99 159 vlineto
          hintmask 11100000
          -176 -261 rlineto
          endchar
        </CharString>
        <CharString name="Zacute">
          -43 19 callgsubr
          50 124 hstem
          32 480 -29 callgsubr
          426 720 -82 callgsubr
          endchar
        </CharString>
        <CharString name="Zacute.sc">
          125 callgsubr
          60 124 hstem
          32 421 -29 callsubr
          400 614 -82 callgsubr
          endchar
        </CharString>
        <CharString name="Zcaron">
          -43 19 callgsubr
          50 124 hstem
          32 480 -29 callgsubr
          302 720 -100 callsubr
        </CharString>
        <CharString name="Zcaron.sc">
          125 callgsubr
          60 124 hstem
          32 421 -29 callsubr
          276 614 -100 callsubr
        </CharString>
        <CharString name="Zdotaccent">
          -43 19 callgsubr
          46 172 hstem
          188 192 -29 callgsubr
          252 592 -89 callsubr
          endchar
        </CharString>
        <CharString name="Zdotaccent.sc">
          125 callgsubr
          56 172 hstem
          162 192 -29 callsubr
          226 486 -89 callsubr
          endchar
        </CharString>
        <CharString name="a">
          -68 callsubr
          16 callsubr
          hintmask 00111100
          92 callgsubr
          hintmask 01011100
          -70 callsubr
          hintmask 00111100
          -104 callsubr
          hintmask 10011100
          -95 callgsubr
          endchar
        </CharString>
        <CharString name="a.a">
          -75 callsubr
          -3 callsubr
          hintmask 10100110
          -106 callgsubr
          hintmask 01010110
          -61 callsubr
          hintmask 01001110
          -68 callgsubr
          hintmask 10100110
          -20 callsubr
          endchar
        </CharString>
        <CharString name="a.supa">
          -17 callgsubr
        </CharString>
        <CharString name="a.sups">
          -21 callgsubr
        </CharString>
        <CharString name="aacute">
          -41 callsubr
          154 16 callsubr
          hintmask 00111110
          92 callgsubr
          hintmask 01011110
          -70 callsubr
          hintmask 00111110
          -104 callsubr
          hintmask 10011110
          -95 callgsubr
          243 572 -56 callgsubr
          endchar
        </CharString>
        <CharString name="aacute.a">
          -75 callsubr
          82 154 -3 callsubr
          hintmask 10100111
          -106 callgsubr
          hintmask 01010111
          -61 callsubr
          hintmask 01001111
          -68 callgsubr
          hintmask 10100111
          -20 callsubr
          hintmask 01001111
          434 478 -56 callgsubr
          endchar
        </CharString>
        <CharString name="abreve">
          -41 callsubr
          144 98 callsubr
          -65 94 79 172 -151 94 hintmask 0011110100000000
          92 callgsubr
          hintmask 0101110100000000
          -70 callsubr
          hintmask 0011110100000000
          -104 callsubr
          hintmask 1001110100000000
          -95 callgsubr
          hintmask 0011101010000000
          79 418 -51 callgsubr
        </CharString>
        <CharString name="abreve.a">
          -75 callsubr
          82 144 71 callgsubr
          -50 94 94 172 -166 94 hintmask 1010011010000000
          -106 callgsubr
          hintmask 0101011010000000
          -61 callsubr
          hintmask 0100111010000000
          -68 callgsubr
          hintmask 1010011010000000
          -20 callsubr
          hintmask 0100110101000000
          53 callsubr
          endchar
        </CharString>
        <CharString name="acircumflex">
          -41 callsubr
          154 16 callsubr
          hintmask 00111110
          92 callgsubr
          hintmask 01011110
          -70 callsubr
          hintmask 00111110
          -104 callsubr
          hintmask 10011110
          -95 callgsubr
          -85 418 -91 callgsubr
          endchar
        </CharString>
        <CharString name="acircumflex.a">
          -75 callsubr
          82 154 -3 callsubr
          hintmask 10100111
          -106 callgsubr
          hintmask 01010111
          -61 callsubr
          hintmask 01001111
          -68 callgsubr
          hintmask 10100111
          -20 callsubr
          hintmask 01001111
          106 85 callsubr
          endchar
        </CharString>
        <CharString name="acute">
          -25 79 callsubr
          192 252 vstem
          444 154 callgsubr
          endchar
        </CharString>
        <CharString name="adieresis">
          -68 callsubr
          52 156 98 callsubr
          -103 37 callgsubr
          -153 172 hintmask 0011110010000000
          92 callgsubr
          hintmask 0101110010000000
          -70 callsubr
          hintmask 0011110010000000
          -104 callsubr
          hintmask 1001110010000000
          -95 callgsubr
          hintmask 0011101100000000
          -25 408 -103 callsubr
        </CharString>
        <CharString name="adieresis.a">
          -75 callsubr
          72 156 71 callgsubr
          -88 37 callgsubr
          -138 172 hintmask 1010011001000000
          -106 callgsubr
          hintmask 0101011001000000
          -61 callsubr
          hintmask 0100111001000000
          -68 callgsubr
          hintmask 1010011001000000
          -20 callsubr
          hintmask 0100110110000000
          166 314 -103 callsubr
        </CharString>
        <CharString name="ae">
          201 -12 134 76 104 74 136 -130 130 98 callsubr
          398 146 hintmask 11011100
          206 156 rmoveto
          29 29 25 75 12 vhcurveto
          2 -19 2 -17 4 -18 6 -18 rlinecurve
          -18 -20 -23 -12 -29 hhcurveto
          -30 -16 13 23 hvcurveto
          hintmask 11101100
          -88 178 rmoveto
          28 52 38 14 36 hhcurveto
          45 19 -16 -35 4 hvcurveto
          -192 -20 -78 -59 -104 vvcurveto
          -82 56 -72 94 67 49 17 55 72 vhcurveto
          -45 43 57 -27 70 hhcurveto
          56 72 20 38 54 hvcurveto
          -58 110 rlineto
          -20 -36 -30 -14 -34 hhcurveto
          -51 -41 20 56 -14 hvcurveto
          275 hlineto
          3 12 4 26 30 vvcurveto
          hintmask 11011100
          134 -66 112 -136 -56 -42 -22 -42 -44 vhcurveto
          40 -32 -48 24 -58 hhcurveto
          -72 -68 -24 -42 -70 hvcurveto
          410 -144 150 callgsubr
        </CharString>
        <CharString name="agrave">
          -41 callsubr
          154 16 callsubr
          hintmask 00111110
          92 callgsubr
          hintmask 01011110
          -70 callsubr
          hintmask 00111110
          -104 callsubr
          hintmask 10011110
          -95 callgsubr
          43 418 -27 callsubr
        </CharString>
        <CharString name="agrave.a">
          -75 callsubr
          82 154 -3 callsubr
          hintmask 10100111
          -106 callgsubr
          hintmask 01010111
          -61 callsubr
          hintmask 01001111
          -68 callgsubr
          hintmask 10100111
          -20 callsubr
          hintmask 01001111
          234 324 -27 callsubr
        </CharString>
        <CharString name="amacron">
          -68 callsubr
          76 108 98 callsubr
          -65 288 -115 172 hintmask 00111101
          92 callgsubr
          hintmask 01011101
          -70 callsubr
          hintmask 00111101
          -104 callsubr
          hintmask 10011101
          -95 callgsubr
          hintmask 00111010
          -65 432 -27 callgsubr
          endchar
        </CharString>
        <CharString name="amacron.a">
          -75 callsubr
          96 108 71 callgsubr
          -50 288 -100 172 hintmask 1010011010000000
          -106 callgsubr
          hintmask 0101011010000000
          -61 callsubr
          hintmask 0100111010000000
          -68 callgsubr
          hintmask 1010011010000000
          -20 callsubr
          hintmask 0100110100000000
          126 338 -27 callgsubr
          endchar
        </CharString>
        <CharString name="ampersand">
          105 -12 130 432 112 hstemhm
          22 162 -86 141 89 130 hintmask 11101000
          184 186 rmoveto
          23 12 19 18 19 vhcurveto
          34 -40 40 -38 44 -35 rrcurveto
          -10 -22 -21 -6 -21 hhcurveto
          -52 -32 28 40 hvcurveto
          hintmask 11011000
          55 300 rmoveto
          42 24 22 27 25 13 -14 -28 -38 -30 -25 -41 -24 vhcurveto
          -12 23 -6 22 20 vvcurveto
          431 -360 rmoveto
          -31 4 -38 12 -39 19 49 66 34 71 23 76 rrcurveto
          -156 hlineto
          -15 -56 -25 -48 -30 -40 -41 29 -40 33 -33 35 rrcurveto
          66 43 64 53 85 vvcurveto
          94 -68 60 -104 -116 -72 -82 -94 -39 14 -45 25 -45 vhcurveto
          hintmask 11101000
          -62 -38 -53 -52 -91 vvcurveto
          -98 73 -90 151 83 70 24 39 57 vhcurveto
          58 -31 59 -22 57 -10 rrcurveto
          endchar
        </CharString>
        <CharString name="ampersand.sc">
          35 -12 122 328 106 hstemhm
          22 152 -89 131 76 122 hintmask 11101000
          174 156 rmoveto
          15 7 14 12 13 vhcurveto
          27 -28 30 -27 33 -24 rrcurveto
          -6 -15 -15 -3 -15 hhcurveto
          -38 -26 16 30 hvcurveto
          hintmask 11011000
          42 236 rmoveto
          30 22 16 20 20 14 -10 -22 -30 -24 -19 -34 -17 vhcurveto
          -11 18 -7 18 16 vvcurveto
          230 -79 rmoveto
          -12 -42 -19 -37 -23 -30 -33 20 -31 22 -27 22 rrcurveto
          57 34 56 40 66 vvcurveto
          83 -64 53 -95 -105 -65 -72 -79 -32 13 -36 23 -37 vhcurveto
          hintmask 11101000
          -54 -29 -45 -40 -73 vvcurveto
          -78 61 -80 137 76 62 20 34 49 vhcurveto
          51 -26 52 -21 51 -7 39 133 rcurveline
          -28 4 -30 8 -33 12 41 54 31 56 19 58 rrcurveto
          endchar
        </CharString>
        <CharString name="aogonek">
          -43 145 callgsubr
          164 132 -111 -21 29 -21 25 -21 376 136 98 callsubr
          78 114 -84 172 hintmask 0110001101000000
          206 156 rmoveto
          28 26 26 82 12 vhcurveto
          -68 vlineto
          -20 -18 -16 -14 -28 hhcurveto
          -30 -16 13 23 hvcurveto
          -164 -14 rmoveto
          -82 56 -72 94 vhcurveto
          hintmask 0101001010000000
          54 44 24 36 40 hvcurveto
          4 hlineto
          hintmask 1000101010000000
          14 -52 102 callgsubr
          hintmask 0100011001000000
          107 callsubr
          hintmask 1000011010000000
          74 callsubr
          -20 -20 10 24 hvcurveto
          hintmask 0100011001000000
          28 20 34 68 16 vhcurveto
          278 vlineto
          164 -78 70 -130 -78 -72 -24 -42 -70 vhcurveto
          60 -112 rlineto
          28 52 38 14 36 hhcurveto
          44 22 -16 -36 4 hvcurveto
          hintmask 0110001101000000
          -192 -20 -80 -58 -104 vvcurveto
          endchar
        </CharString>
        <CharString name="aogonek.a">
          -5 145 callgsubr
          164 140 -111 -21 25 -48 callgsubr
          71 callgsubr
          108 114 -84 172 hintmask 0110010010100000
          212 252 rmoveto
          88 34 32 36 22 26 -6 -18 20 vhcurveto
          -184 vlineto
          -28 -18 -20 -8 -26 hhcurveto
          -46 -28 34 90 hvcurveto
          -176 -2 rmoveto
          -162 80 -100 124 vhcurveto
          hintmask 0110000111000000
          18 callgsubr
          hvcurveto
          4 hlineto
          hintmask 1001000111000000
          14 -50 102 callgsubr
          hintmask 0100100110100000
          107 callsubr
          hintmask 1000100111000000
          74 callsubr
          -21 -19 11 23 hvcurveto
          hintmask 0100101010100000
          28 20 34 68 16 vhcurveto
          500 -134 vlineto
          hintmask 0100100110100000
          -68 callgsubr
          hintmask 0110010010100000
          -20 callsubr
          endchar
        </CharString>
        <CharString name="approxequal">
          -45 114 120 -48 120 48 120 -48 120 hstemhm
          26 488 hintmask 10011000
          114 370 rmoveto
          34 20 24 22 26 hhcurveto
          hintmask 10101000
          46 callgsubr
          hintmask 01011000
          113 callsubr
          88 -308 rmoveto
          34 20 24 22 26 hhcurveto
          hintmask 10101000
          46 callgsubr
          hintmask 01101000
          113 callsubr
          endchar
        </CharString>
        <CharString name="aring">
          -68 callsubr
          38 62 88 62 98 callsubr
          -41 82 67 172 -163 82 hintmask 0101111010000000
          92 callgsubr
          -70 callsubr
          hintmask 0011110110000000
          12 -48 rlineto
          140 278 hlineto
          164 -78 70 -130 -78 -72 -24 -42 -70 vhcurveto
          60 -112 rlineto
          28 52 38 14 36 hhcurveto
          44 22 -16 -36 4 hvcurveto
          hintmask 0101111010000000
          -192 -20 -80 -58 -104 vvcurveto
          hintmask 1001111010000000
          -95 callgsubr
          hintmask 0011110101000000
          79 394 rmoveto
          -52 callsubr
        </CharString>
        <CharString name="aring.a">
          -75 callsubr
          58 62 88 62 71 callgsubr
          -26 82 76 82 -76 172 hintmask 1010011100100000
          -106 callgsubr
          hintmask 0101011100100000
          -61 callsubr
          hintmask 0100111100100000
          -68 callgsubr
          hintmask 1010011100100000
          -20 callsubr
          hintmask 0100111011000000
          270 300 rmoveto
          -52 callsubr
        </CharString>
        <CharString name="arrowdown">
          186 callgsubr
          310 -26 rmoveto
          268 280 -92 80 -110 -130 rlineto
          326 -136 -326 vlineto
          -110 130 -92 -80 268 -280 rlineto
          endchar
        </CharString>
        <CharString name="arrowup">
          186 callgsubr
          306 530 rmoveto
          -268 -280 92 -80 110 130 rlineto
          -326 136 326 vlineto
          110 -130 92 80 -268 280 rlineto
          endchar
        </CharString>
        <CharString name="asciicircum">
          -45 270 400 -154 154 hstemhm
          46 448 hintmask 10100000
          46 270 rmoveto
          140 hlineto
          38 110 rlineto
          hintmask 01100000
          44 136 rlineto
          4 hlineto
          44 -136 38 -110 rlineto
          140 hlineto
          -156 400 rlineto
          -136 hlineto
          endchar
        </CharString>
        <CharString name="asciitilde">
          -45 234 120 -48 120 hstemhm
          26 488 hintmask 01100000
          114 250 rmoveto
          34 20 24 22 26 hhcurveto
          hintmask 10100000
          46 callgsubr
          hintmask 01100000
          113 callsubr
          endchar
        </CharString>
        <CharString name="asterisk">
          -113 321 391 hstem
          30 412 vstem
          152 321 rmoveto
          84 91 84 -91 70 51 -61 107 113 52 -27 83 -121 -25 -14 123 rlineto
          -88 hlineto
          -14 -122 -121 24 -27 -83 112 -52 -60 -107 rlineto
          endchar
        </CharString>
        <CharString name="at">
          339 -178 102 110 104 -94 106 190 108 128 102 hstemhm
          48 114 98 128 382 106 hintmask 11011111
          48 206 rmoveto
          -264 188 -120 202 72 64 14 32 62 vhcurveto
          -36 92 rlineto
          -20 -40 -60 -16 -48 hhcurveto
          -150 -140 88 198 222 168 144 168 202 70 -132 -136 -102 -54 -68 -60 -40 -14 24 50 12 hvcurveto
          48 228 rlineto
          -104 hlineto
          -16 -42 rlineto
          -2 hlineto
          36 -16 -26 14 -32 hhcurveto
          -114 -92 -122 -128 hvcurveto
          hintmask 10111111
          -92 54 -62 82 40 54 26 40 26 vhcurveto
          2 hlineto
          hintmask 11011111
          -48 12 49 -28 59 hhcurveto
          110 128 92 186 214 -142 152 -222 -254 -210 -188 -284 hvcurveto
          hintmask 10111111
          340 2 rmoveto
          54 32 78 52 18 15 -10 -14 7 vhcurveto
          -22 -126 rlineto
          -30 -22 -16 -10 -18 hhcurveto
          -30 -16 21 37 hvcurveto
          endchar
        </CharString>
        <CharString name="at.case">
          263 -38 96 76 104 -92 104 158 104 98 96 hstemhm
          48 110 80 128 328 106 hintmask 11011111
          48 294 rmoveto
          -238 172 -94 166 66 51 10 26 59 vhcurveto
          -38 86 rlineto
          -16 -35 -49 -10 -40 hhcurveto
          -116 -126 62 178 190 146 122 148 180 62 -106 -112 -102 -52 -52 -44 -26 -12 24 42 10 hvcurveto
          48 200 rlineto
          -103 hlineto
          -17 -42 rlineto
          -2 hlineto
          36 -16 -24 14 -32 hhcurveto
          -102 -84 -106 -122 hvcurveto
          hintmask 10111111
          -80 47 -58 69 40 56 26 40 24 vhcurveto
          2 hlineto
          hintmask 11011111
          -46 12 38 -32 56 hhcurveto
          116 102 92 172 178 -130 130 -206 -230 -186 -160 -252 hvcurveto
          hintmask 10111111
          346 -44 rmoveto
          -20 -8 16 26 46 25 70 39 18 10 -8 -14 6 hvcurveto
          -20 -100 rlineto
          -26 -20 -14 -10 -16 hhcurveto
          endchar
        </CharString>
        <CharString name="atilde">
          -41 callsubr
          146 16 callsubr
          hintmask 00111110
          92 callgsubr
          hintmask 01011110
          -70 callsubr
          hintmask 00111110
          -104 callsubr
          hintmask 10011110
          -95 callgsubr
          -97 418 -93 callgsubr
        </CharString>
        <CharString name="atilde.a">
          -75 callsubr
          82 146 -3 callsubr
          hintmask 10100111
          -106 callgsubr
          hintmask 01010111
          -61 callsubr
          hintmask 01001111
          -68 callgsubr
          hintmask 10100111
          -20 callsubr
          hintmask 01001111
          94 324 -93 callgsubr
        </CharString>
        <CharString name="b">
          -5 -12 123 callsubr
          138 176 hintmask 00111110
          58 hmoveto
          134 hlineto
          hintmask 01011110
          47 callgsubr
          hintmask 10011110
          172 -544 rmoveto
          8 callsubr
          endchar
        </CharString>
        <CharString name="b.sups">
          130 callgsubr
          260 rmoveto
          92 hlineto
          10 36 rlineto
          4 hlineto
          -30 22 32 -14 30 185 callsubr
          -29 -30 -13 -21 -23 hvcurveto
          4 47 rlineto
          107 -120 vlineto
          120 -360 81 callsubr
        </CharString>
        <CharString name="backslash">
          -251 -160 870 hstem
          34 286 vstem
          210 -160 rmoveto
          110 hlineto
          -176 870 rlineto
          -110 hlineto
          endchar
        </CharString>
        <CharString name="bar">
          -307 -250 1000 hstem
          84 110 vstem
          84 -250 156 callsubr
          endchar
        </CharString>
        <CharString name="braceleft">
          180 callsubr
          290 100 290 90 hstemhm
          30 138 -62 142 hintmask 11101000
          292 -62 rmoveto
          -37 -11 10 52 hvcurveto
          51 4 47 58 vvcurveto
          80 -27 28 -53 12 vhcurveto
          4 vlineto
          53 12 27 28 80 58 -4 47 51 vvcurveto
          52 11 10 37 vhcurveto
          16 90 -70 hlineto
          -92 -40 -36 -110 hvcurveto
          -70 10 -30 -62 vvcurveto
          hintmask 11110000
          -34 -22 -36 -64 -2 vhcurveto
          -100 vlineto
          hintmask 11101000
          64 -2 22 -36 -34 -62 -10 -30 -70 vvcurveto
          -110 40 -36 92 vhcurveto
          70 90 hlineto
          endchar
        </CharString>
        <CharString name="braceright">
          180 callsubr
          290 100 290 90 hstemhm
          112 142 -62 138 hintmask 11110000
          52 -62 rmoveto
          -90 70 vlineto
          92 40 36 110 hvcurveto
          70 -10 30 62 vvcurveto
          hintmask 11101000
          34 22 36 64 2 vhcurveto
          100 vlineto
          hintmask 11110000
          -64 2 -22 36 34 62 10 30 70 vvcurveto
          110 -40 36 -92 vhcurveto
          -70 -90 16 hlineto
          37 11 -10 -52 hvcurveto
          -51 -4 -47 -58 vvcurveto
          -80 27 -28 53 -12 vhcurveto
          -4 vlineto
          -53 -12 -27 -28 -80 -58 4 -47 -51 vvcurveto
          -52 -11 -10 -37 vhcurveto
          endchar
        </CharString>
        <CharString name="bracketleft">
          180 callsubr
          680 141 callsubr
          -152 rmoveto
          224 90 -96 680 190 callsubr
        </CharString>
        <CharString name="bracketright">
          180 callsubr
          680 90 hstem
          148 128 vstem
          52 -62 rmoveto
          -90 224 860 -224 -90 96 -680 vlineto
          endchar
        </CharString>
        <CharString name="breve">
          -25 574 144 hstem
          136 94 100 94 vstem
          280 574 -51 callgsubr
        </CharString>
        <CharString name="brokenbar">
          -307 -250 1000 hstem
          84 110 vstem
          84 320 rmoveto
          110 430 -110 hlineto
          -550 vmoveto
          -450 110 450 vlineto
          endchar
        </CharString>
        <CharString name="bullet">
          -225 116 292 hstem
          40 280 vstem
          180 116 rmoveto
          80 60 64 82 82 -60 64 -80 -80 -60 -64 -82 -82 60 -64 80 hvcurveto
          endchar
        </CharString>
        <CharString name="c">
          -113 -6 callsubr
          hstem
          32 176 vstem
          -74 callgsubr
          endchar
        </CharString>
        <CharString name="c.sups">
          -269 252 94 160 94 hstem
          22 122 vstem
          188 252 rmoveto
          54 40 20 18 22 hvcurveto
          -48 76 rlineto
          -10 -12 -14 -10 -26 hhcurveto
          -36 -24 32 48 48 26 32 36 14 14 -6 -10 12 hvcurveto
          54 76 rlineto
          16 -16 -38 18 -52 hhcurveto
          -92 -80 -66 -108 -110 70 -64 96 hvcurveto
          endchar
        </CharString>
        <CharString name="cacute">
          -113 -6 callsubr
          62 154 hstem
          32 176 vstem
          -74 callgsubr
          427 478 -56 callgsubr
          endchar
        </CharString>
        <CharString name="caron">
          -25 79 callsubr
          116 328 vstem
          212 574 -82 callsubr
        </CharString>
        <CharString name="ccaron">
          -113 -6 callsubr
          62 154 hstem
          32 176 vstem
          -74 callgsubr
          195 324 -82 callsubr
        </CharString>
        <CharString name="ccedilla">
          -113 -224 66 171 -21 382 138 hstem
          32 176 49 122 vstem
          335 -7 rmoveto
          40 8 42 18 35 31 -68 108 rcurveline
          -16 -22 -26 -16 -32 hhcurveto
          -54 -42 48 76 76 38 48 64 18 18 -6 -18 22 hvcurveto
          78 106 rlineto
          34 -34 -52 22 -60 hhcurveto
          -142 -126 -96 -166 -146 85 -92 118 -20 hvcurveto
          -34 -68 rlineto
          -79 callgsubr
          endchar
        </CharString>
        <CharString name="ccircumflex">
          -113 -6 callsubr
          62 154 hstem
          32 176 vstem
          -74 callgsubr
          99 85 callsubr
          endchar
        </CharString>
        <CharString name="cdotaccent">
          -113 -6 callsubr
          50 172 167 callsubr
          -5 184 hintmask 11110000
          -74 callgsubr
          hintmask 11101000
          263 312 -107 callgsubr
        </CharString>
        <CharString name="cedilla">
          -25 -224 66 118 44 hstem
          250 122 vstem
          194 -76 rmoveto
          -79 callgsubr
          18 44 rlineto
          -98 hlineto
          endchar
        </CharString>
        <CharString name="cent">
          -45 -44 700 hstem
          60 166 54 92 vstem
          280 199 rmoveto
          -35 20 -19 38 49 vvcurveto
          49 17 38 37 20 vhcurveto
          152 -199 rmoveto
          -17 -13 -20 -12 -23 -5 rrcurveto
          245 vlineto
          14 -3 14 -7 16 -13 78 106 rcurveline
          -29 29 -43 21 -50 5 rrcurveto
          89 -92 -94 vlineto
          -128 -23 -92 -91 -142 vvcurveto
          -148 86 -92 134 -19 vhcurveto
          -91 92 91 vlineto
          43 7 47 19 38 33 rrcurveto
          endchar
        </CharString>
        <CharString name="circumflex">
          -25 79 callsubr
          116 328 vstem
          116 574 -91 callgsubr
          endchar
        </CharString>
        <CharString name="colon">
          -265 -12 208 102 155 callsubr
          402 rmoveto
          -67 callsubr
          -310 vmoveto
          -67 callsubr
          endchar
        </CharString>
        <CharString name="colon.sups">
          -365 432 142 58 96 callsubr
          502 rmoveto
          -4 callgsubr
          200 vmoveto
          -4 callgsubr
          endchar
        </CharString>
        <CharString name="colonmonetary">
          -45 10 -21 27 -21 519 132 -5 -20 25 -20 hstemhm
          52 172 72 54 36 53.5 hintmask 01100111
          330 513 rmoveto
          1 6 6 0 6 hhcurveto
          6 5 0 -1 5 hvcurveto
          -46 -390 -12 3 -11 5 -9 7 rlinecurve
          -46 67 rmoveto
          -11 30 -5 38 45 vvcurveto
          78 17 57 32 32 vhcurveto
          142 2 rmoveto
          8 -6 8 -7 7 -8 94 92 rcurveline
          -29 35 -34 24 -36 14 13 113 rcurveline
          -54 hlineto
          -12 -100 rlineto
          1 -9 -8 1 -9 -3 -2 0 -3 hhcurveto
          12 98 rlineto
          -54 hlineto
          hintmask 01010111
          -12 -103 rlineto
          -143 -26 -97 -117 -186 vvcurveto
          -158 66 -101 98 -42 vhcurveto
          -14 -121 rlineto
          54 hlineto
          12 105 11 -3 12 -1 11 -1 rlinecurve
          hintmask 10001111
          -12 -100 rlineto
          54 hlineto
          12 99 67 5 59 32 48 54 rlinecurve
          -94 88 -19 -22 -20 -16 -25 -6 rlinecurve
          endchar
        </CharString>
        <CharString name="comma">
          -265 -204 400 -188 188 hstemhm
          167 111 hintmask 10100000
          80 -204 rmoveto
          130 36 68 90 118 vvcurveto
          hintmask 01100000
          82 callgsubr
        </CharString>
        <CharString name="comma.dnom">
          -365 2 126 callsubr
          -136 -19 callsubr
        </CharString>
        <CharString name="comma.numr">
          -365 262 126 callsubr
          124 -19 callsubr
        </CharString>
        <CharString name="comma.subs">
          -365 -270 126 callsubr
          -408 -19 callsubr
        </CharString>
        <CharString name="comma.sups">
          -365 442 126 callsubr
          304 -19 callsubr
        </CharString>
        <CharString name="copyright">
          167 -8 68 68 98 194 98 70 68 hstem
          44 76 72 121 319 76 vstem
          44 326 6 callsubr
          72 -2 rmoveto
          -120 82 -76 116 49 43 20 30 38 vhcurveto
          -54 78 rlineto
          -18 -24 -18 -12 -30 hhcurveto
          -50 -31 38 60 52 28 44 59 24 18 -12 -20 19 hvcurveto
          63 70 rlineto
          32 -32 -40 28 -64 hhcurveto
          -102 -94 -76 -118 hvcurveto
          endchar
        </CharString>
        <CharString name="currency">
          -45 147 99 168 98 hstem
          44 152 148 152 vstem
          102 76 rmoveto
          71 71 rlineto
          31 -13 33 -6 33 32 34 6 31 hflex1
          71 -71 85 85 -61 60 rlineto
          21 30 13 36 43 vvcurveto
          42 -12 36 -21 29 vhcurveto
          60 60 -85 85 -70 -70 rlineto
          -31 13 -34 7 -33 -33 -34 -7 -31 hflex1
          -70 70 -85 -85 59 -60 rlineto
          -20 -29 -12 -36 -42 vvcurveto
          -43 12 -36 21 -30 vhcurveto
          -60 -60 rlineto
          179 169 rmoveto
          52 32 32 42 42 32 -32 -52 -52 -32 -32 -42 -42 -32 32 52 vhcurveto
          endchar
        </CharString>
        <CharString name="d">
          -5 -12 62 callgsubr
          138 172 hintmask 01011110
          36 250 rmoveto
          hintmask 10011110
          49 callsubr
          hintmask 01011110
          -8 callsubr
          hintmask 10101110
          176 2 rmoveto
          88 34 32 36 22 26 -6 -18 20 vhcurveto
          -184 vlineto
          -28 -18 -20 -8 -26 hhcurveto
          -46 -28 34 90 hvcurveto
          endchar
        </CharString>
        <CharString name="d.sups">
          -195 260 86 160 94 hstem
          24 122 86 120 vstem
          160 252 rmoveto
          32 30 16 22 22 hvcurveto
          2 hlineto
          8 -30 rlineto
          98 460 -120 -102 hlineto
          6 -52 rlineto
          20 -18 -26 14 -34 hhcurveto
          -64 -72 -64 -104 -114 53 -66 83 hvcurveto
          34 94 rmoveto
          -30 -18 22 64 52 22 22 24 14 12 -4 -12 14 hvcurveto
          -120 vlineto
          -18 -10 -12 -6 -16 hhcurveto
          endchar
        </CharString>
        <CharString name="dagger">
          -53 413 126 hstem
          203 126 vstem
          198 -80 rmoveto
          136 hlineto
          -10 498 168 -10 81 callgsubr
          10 rlineto
          endchar
        </CharString>
        <CharString name="daggerdbl">
          -53 93 124 198 124 hstem
          203 126 vstem
          40 88 rmoveto
          168 10 -10 -178 rlineto
          136 hlineto
          -10 178 168 -10 rlineto
          136 vlineto
          -168 -14 10 106 -10 106 168 -14 81 callgsubr
          14 -10 -106 10 -106 -168 14 rlineto
          endchar
        </CharString>
        <CharString name="dcaron">
          45 -12 186 callsubr
          56 148 -148 226 -3 callsubr
          35 104 hintmask 0101101110000000
          36 250 rmoveto
          hintmask 1001101110000000
          49 callsubr
          hintmask 0101101110000000
          -8 callsubr
          hintmask 1010101110000000
          176 2 rmoveto
          88 34 32 36 22 26 -6 -18 20 vhcurveto
          -184 vlineto
          -28 -18 -20 -8 -26 hhcurveto
          -46 -28 34 90 hvcurveto
          420 296 rmoveto
          hintmask 0101011110000000
          42 callsubr
          hintmask 0101101110000000
          6 -226 rlineto
          endchar
        </CharString>
        <CharString name="dcroat">
          -5 -12 140 -107 -21 352 140 58 80 -80 146 -142.5 142.5 -3 callsubr
          hintmask 10110011
          350 164 rmoveto
          -28 -18 -20 -8 -26 hhcurveto
          -46 -28 29 85 81 34 29 36 22 26 -6 -18 20 hvcurveto
          238 302 rmoveto
          -66 hlineto
          hintmask 01101011
          66 -172 vlineto
          hintmask 01110011
          -66 -144 vlineto
          hintmask 10101011
          -80 144 -36 vlineto
          6 -72 rlineto
          30 -30 -32 20 -54 hhcurveto
          -102 -102 -96 -156 -158 80 -94 124 46 45 20 32 33 hvcurveto
          4 hlineto
          hintmask 01100111
          10 -40 rlineto
          144 551 hlineto
          66 5 rlineto
          endchar
        </CharString>
        <CharString name="degree">
          -207 386 80 140 80 hstem
          38 88 128 88 vstem
          190 386 rmoveto
          86 66 64 86 86 -66 64 -86 -86 -66 -64 -86 -86 66 -64 86 hvcurveto
          80 vmoveto
          -38 -26 28 42 42 26 28 38 38 26 -28 -42 -42 -26 -28 -38 hvcurveto
          endchar
        </CharString>
        <CharString name="dieresis">
          -25 564 156 hstem
          98 127 callsubr
          176 564 -103 callsubr
        </CharString>
        <CharString name="divide">
          -45 64 172 34 120 34 172 hstem
          178 184 vstem
          270 424 rmoveto
          52 40 36 50 50 -40 36 -52 -52 -40 -36 -50 -50 40 -36 52 hvcurveto
          -92 -274 rmoveto
          -50 40 -36 52 52 40 36 50 50 -40 36 -52 -52 -40 -36 -50 vhcurveto
          -144 120 rmoveto
          76 callsubr
          endchar
        </CharString>
        <CharString name="dollar">
          -45 -110 236 -115 -21 27 -21 512 236 -104 -20 22 -20 hstemhm
          58 164 -10 112 -8 164 hintmask 0010010100000000
          475 558 rmoveto
          -40 42 -48 32 -63 10 rrcurveto
          hintmask 0011000100000000
          102 -112 vlineto
          hintmask 0010100100000000
          -104 vlineto
          hintmask 1000101010000000
          -97 -21 -57 -70 -101 -175 258 -11 -80 vvcurveto
          -39 -20 -17 -50 -42 -42 16 40 -54 vhcurveto
          hintmask 0100010100000000
          -74 -116 50 -45 71 -24 57 -7 rlinecurve
          hintmask 1000010100000000
          -100 112 vlineto
          hintmask 0010010100000000
          106 vlineto
          hintmask 0011001010000000
          105 25 51 76 97 182 -258 4 76 vvcurveto
          40 21 12 43 37 31 -16 -32 36 vhcurveto
          endchar
        </CharString>
        <CharString name="dong">
          -45 0 84 34 112 144 114 32 84 -84 126 hstemhm
          64 144 110 140 hintmask 11101110
          78 hmoveto
          414 84 -414 hlineto
          240 176 rmoveto
          -22 -18 -14 -8 -24 hhcurveto
          -32 -22 22 55 45 30 22 28 20 16 -6 -14 16 hvcurveto
          hintmask 11110110
          140 250 rmoveto
          hintmask 11101110
          42 -140 vlineto
          hintmask 11110110
          -42 -144 vlineto
          hintmask 11101110
          -84 144 -8 vlineto
          4 -60 rlineto
          24 -26 -24 12 -42 hhcurveto
          -80 -86 -66 -114 -122 64 -68 98 40 38 16 28 26 hvcurveto
          2 hlineto
          10 -34 rlineto
          116 392 hlineto
          hintmask 11110110
          71 6 rlineto
          78 vlineto
          endchar
        </CharString>
        <CharString name="dotaccent">
          -25 562 172 hstem
          188 184 vstem
          280 562 -107 callgsubr
        </CharString>
        <CharString name="dotlessi">
          -297 21 -21 500 -20 1 callsubr
          endchar
        </CharString>
        <CharString name="e">
          -30 callgsubr
          hstem
          344 146 vstem
          -106 callsubr
          endchar
        </CharString>
        <CharString name="e.sups">
          -235 252 90 52 66 50 90 hstem
          22 112 96 100 vstem
          196 252 -39 callgsubr
        </CharString>
        <CharString name="eacute">
          30 callgsubr
          154 hstem
          344 146 vstem
          -106 callsubr
          92 422 -56 callgsubr
          endchar
        </CharString>
        <CharString name="eacute.sups">
          123 callgsubr
          124 640 rmoveto
          86 hlineto
          86 102 rlineto
          -114 hlineto
          14 -490 -39 callgsubr
        </CharString>
        <CharString name="ebreve">
          30 callgsubr
          144 hstemhm
          128 94 100 94 -72 146 hintmask 11111010
          -106 callsubr
          -72 268 rmoveto
          hintmask 11111100
          27 callsubr
          -94 hlineto
          -30 -4 -15 -22 -31 hhcurveto
          -31 -15 22 30 -4 hvcurveto
          -94 hlineto
          hintmask 11111010
          -22 callgsubr
          endchar
        </CharString>
        <CharString name="ecaron">
          30 callgsubr
          154 hstem
          344 146 vstem
          -106 callsubr
          -140 268 -82 callsubr
        </CharString>
        <CharString name="ecircumflex">
          30 callgsubr
          154 hstem
          344 146 vstem
          -106 callsubr
          -236 268 -91 callgsubr
          endchar
        </CharString>
        <CharString name="edieresis">
          -30 callgsubr
          52 156 hstemhm
          90 37 callgsubr
          -110 146 hintmask 11101100
          -97 callsubr
          hintmask 11101010
          285 hlineto
          3 12 4 26 30 vvcurveto
          134 -70 108 -148 vhcurveto
          hintmask 11101100
          -122 -118 -100 -162 hvcurveto
          164 56 rmoveto
          hintmask 11111010
          55 10 32 21 38 hhcurveto
          52 16 -34 -42 hvcurveto
          -176 258 55 callgsubr
          hintmask 11111100
          208 124 callgsubr
          endchar
        </CharString>
        <CharString name="edotaccent">
          -30 callgsubr
          50 172 hstemhm
          180 184 -20 146 hintmask 11100100
          -5 callgsubr
          -72 256 -107 callgsubr
        </CharString>
        <CharString name="egrave">
          30 callgsubr
          154 hstem
          344 146 vstem
          -106 callsubr
          -108 268 -27 callsubr
        </CharString>
        <CharString name="egrave.sups">
          123 callgsubr
          156 640 rmoveto
          86 hlineto
          -58 102 rlineto
          -114 hlineto
          126 -490 -39 callgsubr
        </CharString>
        <CharString name="eight">
          -45 -12 118 422 118 hstemhm
          42 34 callgsubr
          189 -86 callsubr
        </CharString>
        <CharString name="eight.dnom">
          -205 -12 82 248 84 hstemhm
          36 14 callgsubr
          hintmask 11100100
          148 112 -83 callgsubr
        </CharString>
        <CharString name="eight.numr">
          -205 248 82 248 84 hstemhm
          36 14 callgsubr
          hintmask 11100100
          148 372 -83 callgsubr
        </CharString>
        <CharString name="eight.onum">
          -27 -12 118 422 118 hstemhm
          50 34 callgsubr
          197 -86 callsubr
        </CharString>
        <CharString name="eight.pnum">
          -27 -12 118 422 118 hstemhm
          50 34 callgsubr
          197 -86 callsubr
        </CharString>
        <CharString name="eight.sc">
          -65 -12 113 330 113 hstemhm
          44 149 -132 145 104 139 -124 151 hintmask 11100100
          193 156 rmoveto
          29 17 19 15 14 vhcurveto
          69 -24 31 -16 -30 vvcurveto
          -37 -28 -10 -33 -36 -35 18 37 vhcurveto
          hintmask 11011000
          95 167 rmoveto
          -55 17 -27 21 27 vvcurveto
          32 22 11 26 34 22 -17 -32 -18 -8 -24 -14 -17 vhcurveto
          hintmask 11100100
          -244 -193 rmoveto
          -84 91 -58 120 133 88 64 92 70 -43 42 -58 28 vhcurveto
          3 vlineto
          hintmask 11011000
          42 24 32 35 55 vvcurveto
          85 -76 58 -116 -112 -84 -58 -98 -55 30 -40 48 -33 vhcurveto
          -3 vlineto
          hintmask 11100100
          -55 -27 -40 -35 -65 vvcurveto
          endchar
        </CharString>
        <CharString name="eight.subs">
          -205 -284 82 248 84 hstemhm
          36 14 callgsubr
          hintmask 11100100
          148 -160 -83 callgsubr
        </CharString>
        <CharString name="eight.sups">
          -205 428 82 248 84 hstemhm
          36 14 callgsubr
          hintmask 11100100
          148 552 -83 callgsubr
        </CharString>
        <CharString name="eight.tnum">
          -45 -12 118 422 118 hstemhm
          42 34 callgsubr
          189 -86 callsubr
        </CharString>
        <CharString name="ellipsis">
          405 -12 208 hstem
          70 200 130 200 130 200 vstem
          70 92 rmoveto
          -67 callsubr
          330 hmoveto
          -67 callsubr
          330 hmoveto
          -67 callsubr
          endchar
        </CharString>
        <CharString name="emacron">
          -30 callgsubr
          76 108 hstemhm
          128 288 -72 146 hintmask 11110100
          -5 callgsubr
          -216 282 -27 callgsubr
          endchar
        </CharString>
        <CharString name="emdash">
          88 callsubr
        </CharString>
        <CharString name="emdash.sc">
          115 216 108 hstem
          44 612 vstem
          44 216 rmoveto
          612 108 -612 hlineto
          endchar
        </CharString>
        <CharString name="emdash.sups">
          -21 601 73 hstem
          44 477 vstem
          44 601 rmoveto
          477 73 -477 hlineto
          endchar
        </CharString>
        <CharString name="endash">
          -105 200 108 hstem
          44 392 vstem
          44 200 rmoveto
          392 108 -392 hlineto
          endchar
        </CharString>
        <CharString name="endash.sc">
          -165 216 108 hstem
          44 332 vstem
          44 216 rmoveto
          332 108 -332 hlineto
          endchar
        </CharString>
        <CharString name="endash.sups">
          -235 601 73 hstem
          44 262 vstem
          44 601 rmoveto
          262 73 -262 hlineto
          endchar
        </CharString>
        <CharString name="eogonek">
          -59 145 callgsubr
          164 130 84 104 76 130 hstemhm
          254 112 -22 146 hintmask 01111010
          32 250 rmoveto
          hintmask 10111100
          -166 112 -96 146 4 4 0 2 10 vhcurveto
          -24 -22 -30 -38 -48 vvcurveto
          -62 48 -32 62 vhcurveto
          hintmask 01111010
          107 callsubr
          hintmask 10111100
          -34 76 rlineto
          -6 -9 -12 -6 -12 hhcurveto
          -23 -18 11 23 38 18 26 88 60 hvcurveto
          -56 102 rlineto
          -20 -36 -32 -10 -34 hhcurveto
          -56 -44 20 64 -16 hvcurveto
          hintmask 01111010
          285 hlineto
          3 12 4 26 30 vvcurveto
          134 -70 108 -148 -122 -118 -100 -162 vhcurveto
          164 56 rmoveto
          56 10 32 20 38 hhcurveto
          52 16 -34 -42 hvcurveto
          endchar
        </CharString>
        <CharString name="equal">
          149 callgsubr
          34 390 rmoveto
          76 callsubr
          -360 vmoveto
          76 callsubr
          endchar
        </CharString>
        <CharString name="estimated">
          215 -11 20 307 19 306 20 hstem
          46 130 450 129 vstem
          184 108 rmoveto
          -4 6 -4 7 8 vvcurveto
          183 vlineto
          3 2 1 2 vhcurveto
          575 hlineto
          3 0 3 3 vvcurveto
          186 -158 150 -196 -196 -159 -150 -186 -186 159 -150 196 114 102 52 79 65 vhcurveto
          -52 hlineto
          -68 -55 -82 -43 -91 hhcurveto
          -86 -78 38 61 -54 hvcurveto
          -4 227 rmoveto
          -2 -2 2 3 hvcurveto
          180 vlineto
          9 4 8 5 6 vhcurveto
          60 55 76 38 86 hhcurveto
          83 76 -37 -58 56 hvcurveto
          5 -6 4 -7 -9 vvcurveto
          -184 vlineto
          -3 -2 -2 -3 vhcurveto
          endchar
        </CharString>
        <CharString name="eth">
          -19 -12 138 206 126 hstem
          38 156 166 160 vstem
          280 126 rmoveto
          -46 -40 34 70 75 37 27 46 30 28 -9 -24 24 hvcurveto
          1 -12 0 -13 -14 vvcurveto
          -98 -36 -36 -44 vhcurveto
          222 532 rmoveto
          -44 75 -143 -72 -44 32 -47 27 -47 24 rlinecurve
          -74 -104 29 -15 27 -15 24 -15 rlinecurve
          -111 -56 44 -74 142 71 33 -32 24 -35 17 -42 rlinecurve
          23 -25 -35 8 -32 hhcurveto
          -100 -102 -82 -146 -148 108 -94 128 154 92 120 162 145 -55 105 -79 80 hvcurveto
          endchar
        </CharString>
        <CharString name="exclam">
          -225 -12 208 -187 -21 184 callsubr
          124 244 rmoveto
          hintmask 01010000
          112 hlineto
          24 278 6 148 133 callsubr
          6 -148 rlineto
          hintmask 10100000
          -20 -430 rmoveto
          -67 callsubr
          endchar
        </CharString>
        <CharString name="exclamdown">
          -225 304 208 0 -20 184 callsubr
          236 256 rmoveto
          hintmask 01010000
          -112 hlineto
          -24 -278 -6 -148 rlineto
          172 hlineto
          -6 148 rlineto
          hintmask 10100000
          20 430 rmoveto
          101 callgsubr
          58 42 46 58 vhcurveto
          endchar
        </CharString>
        <CharString name="f">
          -225 21 73 callgsubr
          74 134 0 181 callgsubr
          hintmask 10101100
          392 690 rmoveto
          hintmask 11010100
          26 callgsubr
          -7 vlineto
          -66 -5 rlineto
          hintmask 10110100
          0 callsubr
          endchar
        </CharString>
        <CharString name="f.sups">
          -341 500 92 52 92 hstem
          58 120 vstem
          266 724 rmoveto
          6 -16 -26 6 -30 hhcurveto
          -102 -34 -70 -74 hvcurveto
          -1 vlineto
          -44 -3 rlineto
          -88 44 -240 120 240 55 92 -55 4 vlineto
          35 14 13 20 12 12 -2 -2 8 vhcurveto
          endchar
        </CharString>
        <CharString name="f_f">
          103 21 -21 366 134 64 134 -124 134 -10 -20 30 181 callgsubr
          156 172 hintmask 11000111
          720 690 rmoveto
          hintmask 11010011
          26 callgsubr
          -6 -156 8 vlineto
          hintmask 11100011
          40 24 16 28 28 14 -4 -6 14 vhcurveto
          hintmask 11001011
          30 126 rlineto
          hintmask 11100011
          9 -22 -40 9 -46 hhcurveto
          -148 -54 -90 -102 hvcurveto
          -7 vlineto
          -66 -5 rlineto
          -128 66 -366 172 366 156 -366 172 366 84 134 -84 vlineto
          hintmask 11010011
          12 vlineto
          47 20 15 32 vhcurveto
          hintmask 11100011
          16 18 -4 -6 16 hvcurveto
          endchar
        </CharString>
        <CharString name="f_t">
          139 -12 158 callgsubr
          33 -21 366 134 74 56 -56 134 0 181 callgsubr
          144 172 hintmask 1001100110000000
          680 130 rmoveto
          -4 -12 -16 -4 -16 hhcurveto
          -32 -28 18 55 hvcurveto
          171 114 134 -114 130 -142 vlineto
          -20 -130 rlineto
          -154 hlineto
          hintmask 0011010110000000
          12 vlineto
          47 20 15 32 16 18 -4 -6 16 vhcurveto
          hintmask 0011001110000000
          30 126 rlineto
          hintmask 0011010110000000
          26 callgsubr
          -7 vlineto
          -66 -5 rlineto
          -128 66 -366 172 366 144 -174 vlineto
          hintmask 0101010110000000
          -122 54 -82 130 55 37 10 8 26 vhcurveto
          endchar
        </CharString>
        <CharString name="fi">
          81 21 73 callgsubr
          62 172 -160 134 0 181 callgsubr
          166 127 callgsubr
          hintmask 1100101010000000
          177 callsubr
          hintmask 1010101010000000
          0 callsubr
          hintmask 1010011010000000
          30 126 rlineto
          hintmask 1010101010000000
          26 callgsubr
          hintmask 1011001100000000
          434 56 -89 callsubr
          hintmask 1010101010000000
          74 callgsubr
          endchar
        </CharString>
        <CharString name="figuredash">
          -45 200 108 hstem
          44 452 vstem
          44 200 rmoveto
          452 108 -452 hlineto
          endchar
        </CharString>
        <CharString name="five">
          -14 callgsubr
        </CharString>
        <CharString name="five.dnom">
          -205 -12 94 callsubr
          68 -72 callgsubr
          endchar
        </CharString>
        <CharString name="five.numr">
          -205 248 94 callsubr
          328 -72 callgsubr
          endchar
        </CharString>
        <CharString name="five.onum">
          -18 callsubr
        </CharString>
        <CharString name="five.pnum">
          -14 callgsubr
        </CharString>
        <CharString name="five.sc">
          -80 -11 130 115 110 48 140 hstem
          74 145 70 167 vstem
          22 66 rmoveto
          -46 49 69 -31 90 hhcurveto
          125 101 71 120 112 -85 52 -101 -16 -18 -2 -5 -19 hvcurveto
          4 55 rlineto
          212 140 -352 hlineto
          -14 -280 72 -46 rlineto
          21 35 13 7 34 hhcurveto
          37 31 -22 -36 -37 -24 -20 -49 -42 -43 26 27 -35 hvcurveto
          endchar
        </CharString>
        <CharString name="five.subs">
          -205 -284 94 callsubr
          -204 -72 callgsubr
          endchar
        </CharString>
        <CharString name="five.sups">
          -205 428 94 callsubr
          508 -72 callgsubr
          endchar
        </CharString>
        <CharString name="five.tnum">
          -18 callsubr
        </CharString>
        <CharString name="fiveeighths">
          275 -12 82 178 94 -24 84 36 72 36 104 hstemhm
          76 104 42 134 callgsubr
          14 callgsubr
          hintmask 1101111010100000
          24 328 -72 callgsubr
          206 -398 -41 callgsubr
          hintmask 1101111100100000
          420 124 -49 callgsubr
          hintmask 1011111011000000
          -57 callgsubr
          hintmask 1101111100100000
          -47 callgsubr
          hintmask 1011111011000000
          -50 callsubr
          hintmask 1101111100100000
          -34 -20 -36 -35 -43 vvcurveto
          endchar
        </CharString>
        <CharString name="fl">
          73 165 callsubr
          33 73 callgsubr
          74 134 -12 -20 32 181 callgsubr
          158 172 hintmask 0011010011000000
          177 callsubr
          hintmask 0010110011000000
          0 callsubr
          hintmask 0010100111000000
          30 126 rlineto
          hintmask 1000110011000000
          26 callgsubr
          548 -378 rmoveto
          -2 -8 -4 0 -6 hhcurveto
          -12 -16 10 34 hvcurveto
          hintmask 0100101011000000
          526 -172 -520 vlineto
          -26 callgsubr
          endchar
        </CharString>
        <CharString name="fl.a">
          81 366 134 74 134 hstem
          88 172 176 172 vstem
          177 callsubr
          0 callsubr
          30 126 rlineto
          26 callgsubr
          348 190 rmoveto
          -696 172 696 vlineto
          endchar
        </CharString>
        <CharString name="four">
          -45 170 callgsubr
          290 160 vstem
          182 23 callgsubr
        </CharString>
        <CharString name="four.dnom">
          -205 80 67 callgsubr
          160 -32 callgsubr
        </CharString>
        <CharString name="four.numr">
          -205 340 67 callgsubr
          420 -32 callgsubr
        </CharString>
        <CharString name="four.onum">
          -29 78 130 232 140 hstem
          298 160 vstem
          190 23 callsubr
        </CharString>
        <CharString name="four.pnum">
          -9 170 callgsubr
          308 160 vstem
          200 23 callgsubr
        </CharString>
        <CharString name="four.sc">
          -46 21 -21 110 123 164 135 hstem
          281 158 vstem
          195 233 rmoveto
          42 77 19 37 6 12 20 38 rlinecurve
          4 hlineto
          -2 -39 -3 -52 -39 vvcurveto
          -34 vlineto
          217 hmoveto
          -59 299 -212 hlineto
          -188 -303 rlineto
          -119 242 -110 158 110 59 vlineto
          endchar
        </CharString>
        <CharString name="four.subs">
          -205 -192 67 callgsubr
          -112 -32 callgsubr
        </CharString>
        <CharString name="four.sups">
          -205 520 67 callgsubr
          600 -32 callgsubr
        </CharString>
        <CharString name="four.tnum">
          -45 78 130 232 140 hstem
          290 160 vstem
          182 23 callsubr
        </CharString>
        <CharString name="fraction">
          -485 -12 674 hstem
          -172 444 vstem
          -76 -12 -41 callgsubr
          endchar
        </CharString>
        <CharString name="g">
          -25 callsubr
          5 callgsubr
          122 148 -92 164 hintmask 1111010001000000
          -91 callsubr
          hintmask 1111000110000000
          -75 hlineto
          -50 -20 8 22 14 2 6 10 9 hvcurveto
          -5 22 18 -2 16 hhcurveto
          112 90 48 118 20 -4 20 -4 12 hvcurveto
          72 124 -186 hlineto
          hintmask 1110101010000000
          8 -24 -28 4 -28 hhcurveto
          -110 -104 -58 -124 -58 32 -46 36 -24 hvcurveto
          -4 vlineto
          hintmask 1111000110000000
          -34 -24 -22 -36 -34 vvcurveto
          -42 20 -26 26 -18 vhcurveto
          -4 vlineto
          hintmask 1111010001000000
          -46 -24 -24 -31 -41 vvcurveto
          hintmask 1110101010000000
          226 342 rmoveto
          -32 -22 22 48 46 22 22 32 32 22 -22 -46 -48 -22 -22 -32 hvcurveto
          endchar
        </CharString>
        <CharString name="g.a">
          -46 callgsubr
        </CharString>
        <CharString name="g.supa">
          -187 125 91 61 94 132 88 hstem
          28 121 88 119 vstem
          87 238 rmoveto
          -39 -76 rlineto
          -25 40 53 -12 35 hhcurveto
          115 65 50 97 hvcurveto
          319 -95 vlineto
          -9 -31 rlineto
          -2 hlineto
          28 -24 -27 11 -32 hhcurveto
          -68 -71 -64 -100 -92 54 -66 83 27 27 10 18 21 hvcurveto
          -3 -29 rlineto
          -2 vlineto
          -28 -18 -30 -43 -25 -34 7 15 -30 vhcurveto
          110 133 rmoveto
          -29 -19 20 45 48 21 19 24 14 17 -4 -11 12 hvcurveto
          -93 vlineto
          -19 -12 -11 -5 -17 hhcurveto
          endchar
        </CharString>
        <CharString name="g.sups">
          -217 124 72 48 88 32 70 72 86 -70 78 hstemhm
          20 96 -89 111 -102 92 77 103 -66 114 hintmask 1111010001000000
          116 226 rmoveto
          8 5 7 7 7 vhcurveto
          -4 14 16 0 16 hhcurveto
          26 hlineto
          28 14 -4 -15 -17 -26 -12 -36 -38 -26 10 20 hvcurveto
          -96 -20 rmoveto
          -60 64 -22 76 122 74 50 72 61 -46 25 -86 vhcurveto
          hintmask 1111000110000000
          -50 hlineto
          -34 -12 4 14 8 2 4 6 6 hvcurveto
          -4 16 10 0 10 hhcurveto
          74 62 32 78 12 -2 13 -2 7 hvcurveto
          46 86 -124 hlineto
          6 -16 -20 2 -18 hhcurveto
          hintmask 1111001010000000
          -75 -70 -39 -83 -38 21 -31 25 -15 hvcurveto
          -4 vlineto
          hintmask 1111000110000000
          -24 -16 -13 -24 -22 vvcurveto
          -28 12 -16 18 -12 vhcurveto
          -4 vlineto
          hintmask 1111010001000000
          -30 -14 -16 -20 -28 vvcurveto
          hintmask 1110101010000000
          152 228 rmoveto
          -20 -14 14 30 30 14 14 20 20 13 -14 -30 -30 -13 -14 -20 hvcurveto
          endchar
        </CharString>
        <CharString name="gbreve">
          -25 callsubr
          62 144 5 callgsubr
          -76 94 100 94 -90 148 -92 164 hintmask 1111011000001000
          -91 callsubr
          hintmask 1111010010010000
          -75 hlineto
          -50 -20 8 22 14 2 6 10 9 hvcurveto
          -5 22 18 -2 16 hhcurveto
          112 90 48 118 20 -4 20 -4 12 hvcurveto
          72 124 -186 hlineto
          hintmask 1110110100010000
          8 -24 -28 4 -28 hhcurveto
          -110 -104 -58 -124 -58 32 -46 36 -24 hvcurveto
          -4 vlineto
          hintmask 1111010010010000
          -34 -24 -22 -36 -34 vvcurveto
          -42 20 -26 26 -18 vhcurveto
          -4 vlineto
          hintmask 1111011000001000
          -46 -24 -24 -31 -41 vvcurveto
          hintmask 1110110100010000
          226 342 rmoveto
          -32 -22 22 48 46 22 22 32 32 22 -22 -46 -48 -22 -22 -32 hvcurveto
          hintmask 1111010001100000
          314 vmoveto
          -73 callgsubr
        </CharString>
        <CharString name="gbreve.a">
          -35 callsubr
          82 144 hstemhm
          42 174 -54 94 100 -87 callsubr
          hintmask 1100110110000000
          14 420 -51 callgsubr
        </CharString>
        <CharString name="gcaron">
          -25 callsubr
          62 154 -92 callgsubr
          -68 314 -82 callsubr
        </CharString>
        <CharString name="gcaron.a">
          -47 callsubr
          -54 420 -82 callsubr
        </CharString>
        <CharString name="gcircumflex">
          -25 callsubr
          62 154 -92 callgsubr
          -164 314 -91 callgsubr
          endchar
        </CharString>
        <CharString name="gcircumflex.a">
          -47 callsubr
          -150 420 -91 callgsubr
          endchar
        </CharString>
        <CharString name="gdotaccent">
          -25 callsubr
          50 172 5 callgsubr
          -24 184 -38 -88 callgsubr
          hintmask 1111010001000000
          302 vmoveto
          54 38 36 50 50 -38 36 -54 -54 -38 -36 -50 -50 38 -36 54 hvcurveto
          endchar
        </CharString>
        <CharString name="gdotaccent.a">
          -35 callsubr
          70 172 hstemhm
          42 174 -2 184 -42 -87 callsubr
          hintmask 1100110100000000
          14 408 -107 callgsubr
        </CharString>
        <CharString name="germandbls">
          69 -12 126 -114 32 -11 -21 572 134 hstemhm
          58 170 76 156 -92 164 -60 156 hintmask 00111010
          58 hmoveto
          170 458 hlineto
          68 27 46 57 36 20 -26 -34 vhcurveto
          hintmask 00111100
          -70 -64 -26 -72 vvcurveto
          hintmask 10011001
          -128 168 -6 -60 vvcurveto
          -22 -18 -14 -26 -28 -30 10 24 -32 vhcurveto
          hintmask 01011010
          -58 -116 rlineto
          hintmask 10011001
          -28 50 44 -16 60 hhcurveto
          130 64 76 94 hvcurveto
          hintmask 00111100
          150 -168 4 54 vvcurveto
          hintmask 00111010
          44 72 28 94 vvcurveto
          88 -72 86 -148 -175 -79 -100 -130 vhcurveto
          endchar
        </CharString>
        <CharString name="germandbls.sc">
          435 -12 90 callsubr
          hstem
          61 171 79 172 83 171 79 172 vstem
          32 62 -101 callgsubr
          424 -114 -101 callgsubr
          endchar
        </CharString>
        <CharString name="grave">
          -25 79 callsubr
          116 252 vstem
          244 574 -27 callsubr
        </CharString>
        <CharString name="greater">
          -45 94 476 hstem
          332 174 vstem
          506 390 rmoveto
          -472 180 rlineto
          -140 vlineto
          162 -50 136 -46 rlineto
          -4 vlineto
          -136 -46 -162 -50 rlineto
          -140 vlineto
          472 180 rlineto
          endchar
        </CharString>
        <CharString name="greaterequal">
          -45 0 120 hstemhm
          34 472 -174 174 hintmask 11000000
          34 hmoveto
          76 callsubr
          hintmask 10100000
          472 312 rmoveto
          -472 138 rlineto
          -140 vlineto
          158 -36 140 -30 rlineto
          -4 vlineto
          -140 -30 -158 -36 rlineto
          -140 vlineto
          472 138 rlineto
          endchar
        </CharString>
        <CharString name="guillemotleft">
          -85 52 400 hstem
          50 396 vstem
          184 52 39 callsubr
          334 -140 39 callsubr
          endchar
        </CharString>
        <CharString name="guillemotright">
          -85 52 400 hstem
          54 396 vstem
          54 102 36 callgsubr
          92 -150 36 callgsubr
          endchar
        </CharString>
        <CharString name="guilsinglleft">
          -285 52 400 hstem
          50 196 vstem
          184 52 39 callsubr
          endchar
        </CharString>
        <CharString name="guilsinglright">
          -285 52 400 hstem
          54 196 vstem
          54 102 36 callgsubr
          endchar
        </CharString>
        <CharString name="h">
          -3 21 84 callgsubr
          183 callgsubr
          hintmask 10111100
          35 callgsubr
          hlineto
          hintmask 11011100
          -83 callsubr
          -68 -48 -34 -30 -34 vhcurveto
          8 86 rlineto
          162 -172 vlineto
          endchar
        </CharString>
        <CharString name="h.sups">
          -194 28 callsubr
          -22 -22 vhcurveto
          8 58 rlineto
          108 -120 vlineto
          endchar
        </CharString>
        <CharString name="hbar">
          -3 21 -21 346 146 111 callsubr
          183 callgsubr
          hintmask 11001110
          230 514 rmoveto
          36 164 vlineto
          hintmask 11010110
          80 -164 vlineto
          hintmask 11001110
          66 -172 vlineto
          hintmask 11100110
          -67 vlineto
          -66 -5 rlineto
          hintmask 11001110
          -74 66 -550 172 308 vlineto
          24 26 18 14 32 hhcurveto
          34 16 -16 -64 hvcurveto
          -266 172 288 vlineto
          124 -46 80 -110 -68 -48 -34 -30 -34 vhcurveto
          endchar
        </CharString>
        <CharString name="hcircumflex">
          -3 21 84 callsubr
          0 -20 204 -20 74 124 60 callgsubr
          183 callgsubr
          hintmask 10111110
          35 callgsubr
          hlineto
          hintmask 11011110
          -83 callsubr
          -68 -48 -34 -30 -34 vhcurveto
          8 86 rlineto
          162 -172 vlineto
          34 54 -101 callsubr
          endchar
        </CharString>
        <CharString name="hungarumlaut">
          -25 79 callsubr
          144 382 vstem
          144 574 -1 callgsubr
        </CharString>
        <CharString name="hyphen">
          88 callgsubr
        </CharString>
        <CharString name="hyphen.sc">
          -275 210 120 hstem
          44 222 vstem
          44 210 rmoveto
          222 120 -222 hlineto
          endchar
        </CharString>
        <CharString name="hyphen.sups">
          -328 597 82 hstem
          44 170 vstem
          44 597 rmoveto
          170 82 -170 hlineto
          endchar
        </CharString>
        <CharString name="i">
          17 callgsubr
        </CharString>
        <CharString name="i.sups">
          -389 630 116 hstem
          38 120 vstem
          98 630 121 callgsubr
          -60 -370 rmoveto
          120 332 193 callgsubr
        </CharString>
        <CharString name="i.trk">
          17 callgsubr
        </CharString>
        <CharString name="iacute">
          -297 21 32 callgsubr
          1 callsubr
          250 228 -56 callgsubr
          endchar
        </CharString>
        <CharString name="icircumflex">
          -297 21 32 callgsubr
          1 callsubr
          -78 74 -91 callgsubr
          endchar
        </CharString>
        <CharString name="idieresis">
          77 callsubr
          84 156 hstemhm
          -38 184 callgsubr
          139 callsubr
          hintmask 11110100
          -18 64 -103 callsubr
        </CharString>
        <CharString name="igrave">
          -297 21 32 callgsubr
          1 callsubr
          50 74 -27 callsubr
        </CharString>
        <CharString name="imacron">
          77 callsubr
          108 108 1 callsubr
          -58 88 -27 callgsubr
          endchar
        </CharString>
        <CharString name="infinity">
          241 100 158 -130 124 124 158 -108 124 hstemhm
          36 124 506 124 hintmask 01011100
          213 128 rmoveto
          71 54 40 48 36 hvcurveto
          4 hlineto
          hintmask 10011100
          -84 63 59 -32 83 hhcurveto
          112 95 85 157 120 -88 88 -109 -78 -60 -36 -68 -53 hvcurveto
          -4 hlineto
          hintmask 01101100
          50 -36 -51 38 -75 hhcurveto
          -120 -80 -80 -140 hvcurveto
          hintmask 01011100
          -97 76 -89 101 vhcurveto
          hintmask 10011100
          245 226 rmoveto
          50 36 42 22 40 hhcurveto
          54 36 -32 -56 -42 -32 -38 -52 -54 -35 47 49 -35 hvcurveto
          hintmask 01101100
          -230 -102 rmoveto
          -45 -23 34 32 32 18 26 44 36 36 -29 -39 24 hvcurveto
          -35 -24 -30 -21 -36 hhcurveto
          endchar
        </CharString>
        <CharString name="integral">
          -173 -158 128 694 128 hstemhm
          116 154 -118 154 hintmask 11010000
          54 -26 rmoveto
          -16 -124 rlineto
          -3 12 24 -5 25 hhcurveto
          173 34 109 145 hvcurveto
          hintmask 11100000
          172 -36 118 156 vvcurveto
          90 12 32 50 14 12 -1 -3 10 vhcurveto
          16 124 rlineto
          3 -12 -24 5 -25 hhcurveto
          -173 -34 -109 -145 hvcurveto
          hintmask 11010000
          -172 36 -118 -156 vvcurveto
          -92 -12 -30 -50 -14 -12 1 3 -10 vhcurveto
          endchar
        </CharString>
        <CharString name="iogonek">
          -297 145 callgsubr
          197 38 callgsubr
          82 172 hstemhm
          42 114 -108 127 callgsubr
          hintmask 01111001
          58 hmoveto
          hintmask 10111100
          50 hlineto
          -24 -17 -42 -42 -59 vvcurveto
          -62 50 -32 62 vhcurveto
          hintmask 01111001
          107 callsubr
          hintmask 10111001
          86 callgsubr
          hintmask 01111010
          86 62 -89 callsubr
          endchar
        </CharString>
        <CharString name="iogonek.d">
          -297 145 callgsubr
          197 38 callgsubr
          hstemhm
          42 114 -98 172 hintmask 01110100
          58 hmoveto
          hintmask 10111000
          50 hlineto
          -24 -17 -42 -42 -59 vvcurveto
          -62 50 -32 62 vhcurveto
          hintmask 01110100
          107 callsubr
          hintmask 10110100
          86 callgsubr
          endchar
        </CharString>
        <CharString name="itilde">
          -297 21 178 callgsubr
          1 callsubr
          -90 74 -93 callgsubr
        </CharString>
        <CharString name="j">
          140 callsubr
          82 172 hstemhm
          50 127 callgsubr
          hintmask 11101000
          4 callsubr
          hintmask 11110000
          86 62 -89 callsubr
          endchar
        </CharString>
        <CharString name="j.sups">
          -387 128 92 410 116 hstem
          40 120 vstem
          28 128 rmoveto
          102 30 70 74 hvcurveto
          320 -120 -324 vlineto
          -36 -7 -12 -23 -11 -9 2 2 -6 vhcurveto
          -20 -88 rlineto
          -4 14 18 -4 32 hhcurveto
          72 502 121 callgsubr
          endchar
        </CharString>
        <CharString name="jcircumflex">
          140 callsubr
          94 154 hstem
          60 172 vstem
          4 callsubr
          -78 74 -91 callgsubr
          endchar
        </CharString>
        <CharString name="k">
          -17 146 callsubr
          216 -20 hstem
          58 168 vstem
          -8 callgsubr
          endchar
        </CharString>
        <CharString name="k.sups">
          -201 260 332 -332 460 hstemhm
          38 120 hintmask 01100000
          144 callgsubr
          80 hlineto
          28 34 rlineto
          hintmask 10100000
          66 -114 rlineto
          128 hlineto
          -128 190 122 142 rlineto
          -128 hlineto
          -84 -114 rlineto
          -4 242 193 callgsubr
        </CharString>
        <CharString name="kgreenlandic">
          -17 21 -21 500 132 callsubr
          114 hlineto
          48 58 100 -172 rlineto
          186 hlineto
          -184 292 174 208 rlineto
          -186 hlineto
          -134 -178 rlineto
          -4 178 -32 callsubr
          endchar
        </CharString>
        <CharString name="l">
          -287 -12 100 callsubr
          hintmask 01110000
          58 176 rmoveto
          -26 callgsubr
          hintmask 10110000
          -44 callgsubr
          endchar
        </CharString>
        <CharString name="l.a">
          -297 21 -21 696 132 callsubr
          181 callsubr
          hlineto
          endchar
        </CharString>
        <CharString name="l.supa">
          -389 260 460 hstem
          38 120 vstem
          144 callgsubr
          460 193 callgsubr
        </CharString>
        <CharString name="l.sups">
          -383 252 94 -94 468 hstemhm
          38 120 hintmask 01100000
          38 380 rmoveto
          hintmask 10100000
          -76 26 -52 80 28 16 4 6 14 vhcurveto
          -14 86 rlineto
          -2 -6 -2 0 -4 hhcurveto
          -10 -8 8 22 hvcurveto
          344 -120 vlineto
          endchar
        </CharString>
        <CharString name="lacute">
          -287 165 callsubr
          708 -20 80 124 60 callgsubr
          hintmask 01111000
          58 176 rmoveto
          -26 callgsubr
          hintmask 10111000
          -44 callgsubr
          265 184 -82 callgsubr
          endchar
        </CharString>
        <CharString name="lacute.a">
          -297 21 -21 696 -20 80 124 hstem
          58 172 vstem
          139 callgsubr
          265 184 -82 callgsubr
          endchar
        </CharString>
        <CharString name="lcaron">
          -247 165 callsubr
          560 148 -148 226 60 callgsubr
          35 104 hintmask 01101100
          58 176 rmoveto
          -26 callgsubr
          hintmask 10101100
          -44 callgsubr
          282 -148 rmoveto
          hintmask 01011100
          42 callsubr
          hintmask 01101100
          6 -226 rlineto
          endchar
        </CharString>
        <CharString name="lcaron.a">
          -247 21 -21 548 148 -148 226 60 callgsubr
          35 104 hintmask 11011000
          139 callgsubr
          282 -148 48 callsubr
        </CharString>
        <CharString name="ldot">
          -97 165 callsubr
          238 208 262 98 callgsubr
          58 200 hintmask 01111000
          58 176 rmoveto
          -26 callgsubr
          hintmask 10111100
          -44 callgsubr
          230 -366 rmoveto
          -67 callsubr
          endchar
        </CharString>
        <CharString name="ldot.a">
          -97 21 -21 226 208 262 -20 hstem
          58 172 58 200 vstem
          139 callgsubr
          230 -366 rmoveto
          -67 callsubr
          endchar
        </CharString>
        <CharString name="less">
          -45 94 476 hstem
          34 174 vstem
          34 274 rmoveto
          472 -180 rlineto
          140 vlineto
          -162 50 -136 46 rlineto
          4 vlineto
          136 46 162 50 rlineto
          140 vlineto
          -472 -180 rlineto
          endchar
        </CharString>
        <CharString name="lessequal">
          -45 0 120 hstemhm
          34 174 -174 472 hintmask 10100000
          34 hmoveto
          76 callsubr
          hintmask 11000000
          172 vmoveto
          472 -138 rlineto
          140 vlineto
          -158 36 -140 30 rlineto
          4 vlineto
          140 30 158 36 rlineto
          140 vlineto
          -472 -138 rlineto
          endchar
        </CharString>
        <CharString name="lira">
          -45 0 144 66 84 44 84 86 138 hstemhm
          52 372 -314 164 hintmask 11110100
          264 148 rmoveto
          18 22 11 19 5 21 rrcurveto
          hintmask 11111000
          126 84 -126 hlineto
          -3 15 -4 15 -3 14 rrcurveto
          136 84 hlineto
          hintmask 11110100
          -150 hlineto
          83 callgsubr
          hvcurveto
          -3 0 -4 -3 vvcurveto
          -2 hlineto
          hintmask 11111000
          -56 -6 rlineto
          -78 81 vlineto
          4 -15 5 -14 4 -15 rrcurveto
          -18 hlineto
          -76 -6 rlineto
          -78 94 vlineto
          -14 -49 -41 -36 -45 -19 rrcurveto
          -106 468 144 vlineto
          hintmask 11110100
          -250 hlineto
          endchar
        </CharString>
        <CharString name="logicalnot">
          -45 270 120 hstem
          382 124 vstem
          34 270 rmoveto
          348 -180 124 300 -472 hlineto
          endchar
        </CharString>
        <CharString name="lozenge">
          -25 -10 144 392 144 hstem
          50 460 vstem
          212 -10 rmoveto
          136 hlineto
          162 340 -162 340 rlineto
          -136 hlineto
          -162 -340 rlineto
          228 -196 rmoveto
          -50 116 -38 80 38 80 50 116 rlineto
          4 hlineto
          50 -116 38 -80 -38 -80 -50 -116 rlineto
          endchar
        </CharString>
        <CharString name="lslash">
          -267 -12 138 386 -20 204 -20 hstem
          70 172 vstem
          288 128 rmoveto
          -2 -8 -4 0 -6 hhcurveto
          -12 -16 10 34 hvcurveto
          169 vlineto
          64 37 rlineto
          136 vlineto
          -64 -37 rlineto
          221 -172 -305 vlineto
          -58 -35 rlineto
          -136 vlineto
          58 35 rlineto
          -79 vlineto
          -26 callgsubr
          endchar
        </CharString>
        <CharString name="lslash.a">
          -269 21 -21 512 -20 204 -20 hstem
          58 172 vstem
          306 512 rmoveto
          -76 -44 rlineto
          228 -172 -312 vlineto
          -46 -28 rlineto
          -136 vlineto
          46 28 rlineto
          -248 172 332 vlineto
          76 44 rlineto
          endchar
        </CharString>
        <CharString name="m">
          283 21 138 callsubr
          120 172 cntrmask 00011100
          hintmask 10111100
          35 callgsubr
          hlineto
          hintmask 11011100
          7 callgsubr
          hintmask 10111100
          -12 61 118 callsubr
          endchar
        </CharString>
        <CharString name="m.sups">
          -1 500 100 hstem
          38 120 76 120 76 120 vstem
          144 callgsubr
          216 hlineto
          16 16 14 8 12 hhcurveto
          26 8 -16 -36 hvcurveto
          -188 120 216 vlineto
          16 16 14 8 12 hhcurveto
          26 8 -16 -36 hvcurveto
          -188 120 202 vlineto
          84 -34 54 -74 -46 -30 -26 -28 -27 vhcurveto
          34 -19 -29 20 -45 hhcurveto
          -46 -28 -24 -26 -26 hvcurveto
          -2 hlineto
          -9 42 rlineto
          -97 hlineto
          endchar
        </CharString>
        <CharString name="macron">
          -25 588 108 hstem
          136 288 vstem
          136 588 -27 callgsubr
          endchar
        </CharString>
        <CharString name="minus">
          -45 270 120 hstem
          34 472 vstem
          34 270 rmoveto
          76 callsubr
          endchar
        </CharString>
        <CharString name="multiply">
          -45 106 446 hstem
          47 446 vstem
          132 106 rmoveto
          138 138 138 -138 85 85 -138 138 138 138 -85 85 -138 -138 -138 138 -85 -85 138 -138 -138 -138 rlineto
          endchar
        </CharString>
        <CharString name="n">
          173 callgsubr
          hstemhm
          58 172 183 callgsubr
          hintmask 10011100
          35 callgsubr
          hlineto
          hintmask 11001100
          -83 callsubr
          -68 -50 -34 -38 -40 vhcurveto
          -4 hlineto
          hintmask 10101100
          -12 60 118 callsubr
          endchar
        </CharString>
        <CharString name="n.sups">
          -195 28 callsubr
          -26 -26 vhcurveto
          -2 hlineto
          -10 42 rlineto
          -96 hlineto
          endchar
        </CharString>
        <CharString name="nacute">
          173 callgsubr
          82 154 60 callgsubr
          183 callgsubr
          hintmask 10011110
          35 callgsubr
          hlineto
          hintmask 11001110
          -83 callsubr
          -68 -50 -34 -38 -40 vhcurveto
          -4 hlineto
          hintmask 10101110
          -12 60 118 callsubr
          420 228 -56 callgsubr
          endchar
        </CharString>
        <CharString name="napostrophe">
          297 131 callgsubr
          30 174 0 -20 hstemhm
          170 96 92 172 183 callgsubr
          hintmask 1001011110000000
          110 322 rmoveto
          106 50 50 78 100 vvcurveto
          92 -36 54 -70 -50 -36 -36 -56 vhcurveto
          hintmask 1001101110000000
          -50 38 -32 48 3 4 0 1 3 vhcurveto
          -60 -32 -39 -64 -28 vhcurveto
          hintmask 1001011110000000
          436 44 rmoveto
          hintmask 1010011110000000
          -12 60 rlineto
          -140 -500 172 hlineto
          hintmask 1100011110000000
          -83 callsubr
          vhcurveto
          hintmask 1001011110000000
          -68 -50 -34 -38 -40 hvcurveto
          endchar
        </CharString>
        <CharString name="nbspace.frac">
          -445 endchar
        </CharString>
        <CharString name="ncaron">
          173 callgsubr
          82 154 60 callgsubr
          183 callgsubr
          hintmask 10011110
          35 callgsubr
          hlineto
          hintmask 11001110
          -83 callsubr
          -68 -50 -34 -38 -40 vhcurveto
          -4 hlineto
          hintmask 10101110
          -12 60 118 callsubr
          188 74 -82 callsubr
        </CharString>
        <CharString name="nine">
          -45 162 callsubr
          32 156 155 157 vstem
          258 -13 callgsubr
        </CharString>
        <CharString name="nine.dnom">
          -205 -12 40 callsubr
          222 -69 callgsubr
        </CharString>
        <CharString name="nine.numr">
          -205 248 40 callsubr
          482 -69 callgsubr
        </CharString>
        <CharString name="nine.onum">
          -29 161 callgsubr
          32 156 165 161 vstem
          258 -13 callsubr
        </CharString>
        <CharString name="nine.pnum">
          -9 162 callsubr
          50 156 155 157 vstem
          276 -13 callgsubr
        </CharString>
        <CharString name="nine.sc">
          -60 -12 133 73 112 114 125 hstem
          41 155 130 154 vstem
          253 306 rmoveto
          -27 -30 9 47 45 30 13 23 24 33 -8 -65 14 hvcurveto
          -28 -17 -28 -13 -22 hhcurveto
          -205 -247 rmoveto
          -37 39 63 -34 86 hhcurveto
          127 117 95 189 202 -120 71 -112 -114 -93 -68 -118 -117 82 -48 94 36 46 16 32 27 hvcurveto
          -90 -7 -40 -31 -50 hhcurveto
          -38 -37 21 16 -18 hvcurveto
          endchar
        </CharString>
        <CharString name="nine.subs">
          -205 -284 40 callsubr
          -50 -69 callgsubr
        </CharString>
        <CharString name="nine.sups">
          -205 428 40 callsubr
          662 -69 callgsubr
        </CharString>
        <CharString name="nine.tnum">
          -45 161 callgsubr
          24 156 165 161 vstem
          250 -13 callsubr
        </CharString>
        <CharString name="notequal">
          149 callgsubr
          48 30 rmoveto
          106 hlineto
          70 120 rlineto
          282 120 -216 hlineto
          66 120 rlineto
          150 120 -84 hlineto
          70 120 rlineto
          -106 hlineto
          -70 -120 rlineto
          -282 -120 216 hlineto
          -66 -120 rlineto
          -150 -120 84 hlineto
          endchar
        </CharString>
        <CharString name="ntilde">
          173 callgsubr
          82 146 60 callgsubr
          183 callgsubr
          hintmask 10011110
          35 callgsubr
          hlineto
          hintmask 11001110
          -83 callsubr
          -68 -50 -34 -38 -40 vhcurveto
          -4 hlineto
          hintmask 10101110
          -12 60 118 callsubr
          80 74 -93 callgsubr
        </CharString>
</ttFont>
